{
  "accessors": [
    {
      "bufferView": 2,
      "componentType": 5126,
      "count": 2041,
      "max": [
        51.262809753417969,
        49.065864562988281,
        51.369102478027344
      ],
      "min": [
        -51.475875854492188,
        -49.82232666015625,
        -51.369693756103516
      ],
      "type": "VEC3"
    },
    {
      "bufferView": 2,
      "byteOffset": 24492,
      "componentType": 5126,
      "count": 2041,
      "max": [
        1,
        1,
        1
      ],
      "min": [
        -1,
        -1,
        -1
      ],
      "type": "VEC3"
    },
    {
      "bufferView": 3,
      "componentType": 5126,
      "count": 2041,
      "max": [
        0.99991869926452637,
        0.99999779462814331,
        0.99988847970962524,
        1
      ],
      "min": [
        -0.99973785877227783,
        -0.99999749660491943,
        -1,
        -1
      ],
      "type": "VEC4"
    },
    {
      "bufferView": 1,
      "componentType": 5126,
      "count": 2041,
      "max": [
        0.95053946971893311,
        0.99709200859069824
      ],
      "min": [
        0.051587201654911041,
        0.51638311147689819
      ],
      "type": "VEC2"
    },
    {
      "bufferView": 0,
      "componentType": 5125,
      "count": 5850,
      "max": [
        2040
      ],
      "min": [
        0
      ],
      "type": "SCALAR"
    },
    {
      "bufferView": 2,
      "byteOffset": 48984,
      "componentType": 5126,
      "count": 257,
      "max": [
        24.237916946411133,
        -34.651626586914062,
        24.425600051879883
      ],
      "min": [
        -24.613979339599609,
        -55.70452880859375,
        -24.426193237304688
      ],
      "type": "VEC3"
    },
    {
      "bufferView": 2,
      "byteOffset": 52068,
      "componentType": 5126,
      "count": 257,
      "max": [
        0.99353510141372681,
        -0.11352190375328064,
        0.99353498220443726
      ],
      "min": [
        -0.99353361129760742,
        -1,
        -0.99353498220443726
      ],
      "type": "VEC3"
    },
    {
      "bufferView": 3,
      "byteOffset": 32656,
      "componentType": 5126,
      "count": 257,
      "max": [
        0.031746596097946167,
        0.99262481927871704,
        0.81312727928161621,
        1
      ],
      "min": [
        -0.77741771936416626,
        -0.99264049530029297,
        0.0026411553844809532,
        1
      ],
      "type": "VEC4"
    },
    {
      "bufferView": 1,
      "byteOffset": 16328,
      "componentType": 5126,
      "count": 257,
      "max": [
        0.2835787832736969,
        0.50075417757034302
      ],
      "min": [
        0.15027154982089996,
        0.36744695901870728
      ],
      "type": "VEC2"
    },
    {
      "bufferView": 0,
      "byteOffset": 23400,
      "componentType": 5125,
      "count": 1440,
      "max": [
        256
      ],
      "min": [
        0
      ],
      "type": "SCALAR"
    },
    {
      "bufferView": 2,
      "byteOffset": 55152,
      "componentType": 5126,
      "count": 191,
      "max": [
        7.3606171607971191,
        -38.180328369140625,
        7.4627032279968262
      ],
      "min": [
        -7.5640816688537598,
        -53.105026245117188,
        -7.4619956016540527
      ],
      "type": "VEC3"
    },
    {
      "bufferView": 2,
      "byteOffset": 57444,
      "componentType": 5126,
      "count": 191,
      "max": [
        1,
        1,
        1
      ],
      "min": [
        -1,
        -1,
        -1
      ],
      "type": "VEC3"
    },
    {
      "bufferView": 3,
      "byteOffset": 36768,
      "componentType": 5126,
      "count": 191,
      "max": [
        0.46956431865692139,
        0.99988752603530884,
        0.99912798404693604,
        1
      ],
      "min": [
        -0.41065758466720581,
        -0.99870568513870239,
        -0.99912804365158081,
        1
      ],
      "type": "VEC4"
    },
    {
      "bufferView": 1,
      "byteOffset": 18384,
      "componentType": 5126,
      "count": 191,
      "max": [
        0.99052619934082031,
        0.5253756046295166
      ],
      "min": [
        0.72639185190200806,
        0.34463757276535034
      ],
      "type": "VEC2"
    },
    {
      "bufferView": 0,
      "byteOffset": 29160,
      "componentType": 5125,
      "count": 1080,
      "max": [
        190
      ],
      "min": [
        0
      ],
      "type": "SCALAR"
    },
    {
      "bufferView": 2,
      "byteOffset": 59736,
      "componentType": 5126,
      "count": 900,
      "max": [
        50.43841552734375,
        7.5373682975769043,
        51.490596771240234
      ],
      "min": [
        -51.707279205322266,
        -8.0572299957275391,
        -51.2222900390625
      ],
      "type": "VEC3"
    },
    {
      "bufferView": 2,
      "byteOffset": 70536,
      "componentType": 5126,
      "count": 900,
      "max": [
        1,
        0.9569428563117981,
        1
      ],
      "min": [
        -1,
        -0.95694315433502197,
        -1
      ],
      "type": "VEC3"
    },
    {
      "bufferView": 3,
      "byteOffset": 39824,
      "componentType": 5126,
      "count": 900,
      "max": [
        0.95667022466659546,
        0.99999982118606567,
        0.95666813850402832,
        1
      ],
      "min": [
        -0.95667517185211182,
        -1,
        -0.95667040348052979,
        1
      ],
      "type": "VEC4"
    },
    {
      "bufferView": 1,
      "byteOffset": 19912,
      "componentType": 5126,
      "count": 900,
      "max": [
        0.71820831298828125,
        0.5087510347366333
      ],
      "min": [
        0.010150738060474396,
        0.36838814616203308
      ],
      "type": "VEC2"
    },
    {
      "bufferView": 0,
      "byteOffset": 33480,
      "componentType": 5125,
      "count": 4992,
      "max": [
        899
      ],
      "min": [
        0
      ],
      "type": "SCALAR"
    },
    {
      "bufferView": 2,
      "byteOffset": 81336,
      "componentType": 5126,
      "count": 640,
      "max": [
        112.01070404052734,
        103.58106231689453,
        52.851097106933594
      ],
      "min": [
        -112.72397613525391,
        -104.02342224121094,
        -50.544490814208984
      ],
      "type": "VEC3"
    },
    {
      "bufferView": 2,
      "byteOffset": 89016,
      "componentType": 5126,
      "count": 640,
      "max": [
        0.99691754579544067,
        0.9035184383392334,
        0.90630984306335449
      ],
      "min": [
        -0.99691790342330933,
        -0.9035152792930603,
        -0.90630930662155151
      ],
      "type": "VEC3"
    },
    {
      "bufferView": 3,
      "byteOffset": 54224,
      "componentType": 5126,
      "count": 640,
      "max": [
        0.99995201826095581,
        0.92229348421096802,
        0.47500044107437134,
        1
      ],
      "min": [
        -0.99961847066879272,
        -0.92477774620056152,
        -0.45882785320281982,
        1
      ],
      "type": "VEC4"
    },
    {
      "bufferView": 1,
      "byteOffset": 27112,
      "componentType": 5126,
      "count": 640,
      "max": [
        0.99804002046585083,
        0.16611999273300171
      ],
      "min": [
        0.0019499999471008778,
        0.0019499999471008778
      ],
      "type": "VEC2"
    },
    {
      "bufferView": 0,
      "byteOffset": 53448,
      "componentType": 5125,
      "count": 960,
      "max": [
        639
      ],
      "min": [
        0
      ],
      "type": "SCALAR"
    },
    {
      "bufferView": 2,
      "byteOffset": 96696,
      "componentType": 5126,
      "count": 640,
      "max": [
        79.355216979980469,
        70.546165466308594,
        45.188899993896484
      ],
      "min": [
        -80.0684814453125,
        -70.988426208496094,
        -40.532493591308594
      ],
      "type": "VEC3"
    },
    {
      "bufferView": 2,
      "byteOffset": 104376,
      "componentType": 5126,
      "count": 640,
      "max": [
        0.99691784381866455,
        0.86335748434066772,
        0.86602777242660522
      ],
      "min": [
        -0.99691742658615112,
        -0.86335808038711548,
        -0.86602729558944702
      ],
      "type": "VEC3"
    },
    {
      "bufferView": 3,
      "byteOffset": 64464,
      "componentType": 5126,
      "count": 640,
      "max": [
        0.99707221984863281,
        0.86621081829071045,
        0.50011789798736572,
        1
      ],
      "min": [
        -0.99996477365493774,
        -0.86435145139694214,
        -0.50191313028335571,
        1
      ],
      "type": "VEC4"
    },
    {
      "bufferView": 1,
      "byteOffset": 32232,
      "componentType": 5126,
      "count": 640,
      "max": [
        0.98591452836990356,
        0.32315066456794739
      ],
      "min": [
        0.0094265937805175781,
        0.20594733953475952
      ],
      "type": "VEC2"
    },
    {
      "bufferView": 0,
      "byteOffset": 57288,
      "componentType": 5125,
      "count": 960,
      "max": [
        639
      ],
      "min": [
        0
      ],
      "type": "SCALAR"
    },
    {
      "bufferView": 4,
      "componentType": 5126,
      "count": 194,
      "max": [
        3.3333332538604736
      ],
      "min": [
        0
      ],
      "type": "SCALAR"
    },
    {
      "bufferView": 5,
      "componentType": 5126,
      "count": 194,
      "max": [
        0.5,
        0.70710676908493042,
        0.67249852418899536,
        0.70710676908493042
      ],
      "min": [
        -0.70710676908493042,
        -0.67249852418899536,
        -0.70710676908493042,
        -0.5
      ],
      "type": "VEC4"
    },
    {
      "bufferView": 4,
      "byteOffset": 776,
      "componentType": 5126,
      "count": 194,
      "max": [
        3.3333332538604736
      ],
      "min": [
        0
      ],
      "type": "SCALAR"
    },
    {
      "bufferView": 5,
      "byteOffset": 3104,
      "componentType": 5126,
      "count": 194,
      "max": [
        0.48404791951179504,
        0.70710676908493042,
        0.67249852418899536,
        0.70710676908493042
      ],
      "min": [
        -0.70710676908493042,
        -0.67249852418899536,
        -0.70710676908493042,
        -0.48404791951179504
      ],
      "type": "VEC4"
    }
  ],
  "animations": [
    {
      "channels": [
        {
          "sampler": 0,
          "target": {
            "node": 10,
            "path": "rotation"
          }
        },
        {
          "sampler": 1,
          "target": {
            "node": 12,
            "path": "rotation"
          }
        }
      ],
      "name": "Take 001",
      "samplers": [
        {
          "input": 30,
          "interpolation": "LINEAR",
          "output": 31
        },
        {
          "input": 32,
          "interpolation": "LINEAR",
          "output": 33
        }
      ]
    }
  ],
  "asset": {
    "extras": {
      "author": "Handrews3D (https://sketchfab.com/Handrews3D)",
      "license": "SKETCHFAB Standard (https://sketchfab.com/licenses)",
      "source": "https://sketchfab.com/models/519c2cdf034842d4a19722cd279c5d80",
      "title": "ER-40MS - SciFi Drone Animated"
    },
    "generator": "Sketchfab-3.33.1",
    "version": "2.0"
  },
  "bufferViews": [
    {
      "buffer": 0,
      "byteLength": 61128,
      "byteOffset": 0,
      "name": "floatBufferViews",
      "target": 34963
    },
    {
      "buffer": 0,
      "byteLength": 37352,
      "byteOffset": 61128,
      "byteStride": 8,
      "name": "floatBufferViews",
      "target": 34962
    },
    {
      "buffer": 0,
      "byteLength": 112056,
      "byteOffset": 98480,
      "byteStride": 12,
      "name": "floatBufferViews",
      "target": 34962
    },
    {
      "buffer": 0,
      "byteLength": 74704,
      "byteOffset": 210536,
      "byteStride": 16,
      "name": "floatBufferViews",
      "target": 34962
    },
    {
      "buffer": 0,
      "byteLength": 1552,
      "byteOffset": 285240,
      "name": "floatBufferViews"
    },
    {
      "buffer": 0,
      "byteLength": 6208,
      "byteOffset": 286792,
      "byteStride": 16,
      "name": "floatBufferViews"
    }
  ],
  "buffers": [
    {
      "byteLength": 293000,
      "uri": "scene.bin"
    }
  ],
  "images": [
    {
      "uri": "textures/Leds_baseColor.png"
    },
    {
      "uri": "textures/Leds_normal.png"
    },
    {
      "uri": "textures/Leds_metallicRoughness.png"
    },
    {
      "uri": "textures/Leds_emissive.jpeg"
    },
    {
      "uri": "textures/Ring1_baseColor.png"
    },
    {
      "uri": "textures/Ring1_normal.png"
    },
    {
      "uri": "textures/Ring1_metallicRoughness.png"
    },
    {
      "uri": "textures/Ring1_emissive.jpeg"
    },
    {
      "uri": "textures/Drone_baseColor.png"
    },
    {
      "uri": "textures/Drone_normal.png"
    },
    {
      "uri": "textures/Drone_metallicRoughness.png"
    },
    {
      "uri": "textures/Drone_emissive.jpeg"
    },
    {
      "uri": "textures/Light_baseColor.png"
    },
    {
      "uri": "textures/Light_normal.png"
    },
    {
      "uri": "textures/Light_metallicRoughness.png"
    },
    {
      "uri": "textures/Light_emissive.jpeg"
    },
    {
      "uri": "textures/Ring2_baseColor.png"
    },
    {
      "uri": "textures/Ring2_normal.png"
    },
    {
      "uri": "textures/Ring2_metallicRoughness.png"
    },
    {
      "uri": "textures/Ring2_emissive.jpeg"
    },
    {
      "uri": "textures/Glass_baseColor.png"
    },
    {
      "uri": "textures/Glass_normal.png"
    },
    {
      "uri": "textures/Glass_metallicRoughness.png"
    },
    {
      "uri": "textures/Glass_emissive.jpeg"
    }
  ],
  "materials": [
    {
      "alphaMode": "BLEND",
      "doubleSided": true,
      "emissiveFactor": [
        1,
        1,
        1
      ],
      "emissiveTexture": {
        "index": 11,
        "texCoord": 0
      },
      "name": "Drone",
      "normalTexture": {
        "index": 9,
        "scale": 1,
        "texCoord": 0
      },
      "occlusionTexture": {
        "index": 10,
        "strength": 1,
        "texCoord": 0
      },
      "pbrMetallicRoughness": {
        "baseColorFactor": [
          1,
          1,
          1,
          1
        ],
        "baseColorTexture": {
          "index": 8,
          "texCoord": 0
        },
        "metallicFactor": 1,
        "metallicRoughnessTexture": {
          "index": 10,
          "texCoord": 0
        },
        "roughnessFactor": 1
      }
    },
    {
      "alphaMode": "BLEND",
      "doubleSided": true,
      "emissiveFactor": [
        1,
        1,
        1
      ],
      "emissiveTexture": {
        "index": 23,
        "texCoord": 0
      },
      "name": "Glass",
      "normalTexture": {
        "index": 21,
        "scale": 1,
        "texCoord": 0
      },
      "occlusionTexture": {
        "index": 22,
        "strength": 1,
        "texCoord": 0
      },
      "pbrMetallicRoughness": {
        "baseColorFactor": [
          1,
          1,
          1,
          1
        ],
        "baseColorTexture": {
          "index": 20,
          "texCoord": 0
        },
        "metallicFactor": 1,
        "metallicRoughnessTexture": {
          "index": 22,
          "texCoord": 0
        },
        "roughnessFactor": 1
      }
    },
    {
      "alphaMode": "BLEND",
      "doubleSided": true,
      "emissiveFactor": [
        1,
        1,
        1
      ],
      "emissiveTexture": {
        "index": 15,
        "texCoord": 0
      },
      "name": "Light",
      "normalTexture": {
        "index": 13,
        "scale": 1,
        "texCoord": 0
      },
      "occlusionTexture": {
        "index": 14,
        "strength": 1,
        "texCoord": 0
      },
      "pbrMetallicRoughness": {
        "baseColorFactor": [
          1,
          1,
          1,
          1
        ],
        "baseColorTexture": {
          "index": 12,
          "texCoord": 0
        },
        "metallicFactor": 1,
        "metallicRoughnessTexture": {
          "index": 14,
          "texCoord": 0
        },
        "roughnessFactor": 1
      }
    },
    {
      "alphaMode": "BLEND",
      "doubleSided": true,
      "emissiveFactor": [
        1,
        1,
        1
      ],
      "emissiveTexture": {
        "index": 3,
        "texCoord": 0
      },
      "name": "Leds",
      "normalTexture": {
        "index": 1,
        "scale": 1,
        "texCoord": 0
      },
      "occlusionTexture": {
        "index": 2,
        "strength": 1,
        "texCoord": 0
      },
      "pbrMetallicRoughness": {
        "baseColorFactor": [
          1,
          1,
          1,
          1
        ],
        "baseColorTexture": {
          "index": 0,
          "texCoord": 0
        },
        "metallicFactor": 1,
        "metallicRoughnessTexture": {
          "index": 2,
          "texCoord": 0
        },
        "roughnessFactor": 1
      }
    },
    {
      "alphaMode": "BLEND",
      "doubleSided": true,
      "emissiveFactor": [
        1,
        1,
        1
      ],
      "emissiveTexture": {
        "index": 19,
        "texCoord": 0
      },
      "name": "Ring2",
      "normalTexture": {
        "index": 17,
        "scale": 1,
        "texCoord": 0
      },
      "occlusionTexture": {
        "index": 18,
        "strength": 1,
        "texCoord": 0
      },
      "pbrMetallicRoughness": {
        "baseColorFactor": [
          1,
          1,
          1,
          1
        ],
        "baseColorTexture": {
          "index": 16,
          "texCoord": 0
        },
        "metallicFactor": 1,
        "metallicRoughnessTexture": {
          "index": 18,
          "texCoord": 0
        },
        "roughnessFactor": 1
      }
    },
    {
      "alphaMode": "BLEND",
      "doubleSided": true,
      "emissiveFactor": [
        1,
        1,
        1
      ],
      "emissiveTexture": {
        "index": 7,
        "texCoord": 0
      },
      "name": "Ring1",
      "normalTexture": {
        "index": 5,
        "scale": 1,
        "texCoord": 0
      },
      "occlusionTexture": {
        "index": 6,
        "strength": 1,
        "texCoord": 0
      },
      "pbrMetallicRoughness": {
        "baseColorFactor": [
          1,
          1,
          1,
          1
        ],
        "baseColorTexture": {
          "index": 4,
          "texCoord": 0
        },
        "metallicFactor": 1,
        "metallicRoughnessTexture": {
          "index": 6,
          "texCoord": 0
        },
        "roughnessFactor": 1
      }
    }
  ],
  "meshes": [
    {
      "name": "DroneLow_Drone_0",
      "primitives": [
        {
          "attributes": {
            "NORMAL": 1,
            "POSITION": 0,
            "TANGENT": 2,
            "TEXCOORD_0": 3
          },
          "indices": 4,
          "material": 0,
          "mode": 4
        }
      ]
    },
    {
      "name": "DroneLow_Glass_0",
      "primitives": [
        {
          "attributes": {
            "NORMAL": 6,
            "POSITION": 5,
            "TANGENT": 7,
            "TEXCOORD_0": 8
          },
          "indices": 9,
          "material": 1,
          "mode": 4
        }
      ]
    },
    {
      "name": "DroneLow_Light_0",
      "primitives": [
        {
          "attributes": {
            "NORMAL": 11,
            "POSITION": 10,
            "TANGENT": 12,
            "TEXCOORD_0": 13
          },
          "indices": 14,
          "material": 2,
          "mode": 4
        }
      ]
    },
    {
      "name": "DroneLow_Leds_0",
      "primitives": [
        {
          "attributes": {
            "NORMAL": 16,
            "POSITION": 15,
            "TANGENT": 17,
            "TEXCOORD_0": 18
          },
          "indices": 19,
          "material": 3,
          "mode": 4
        }
      ]
    },
    {
      "name": "Ring2_Ring2_0",
      "primitives": [
        {
          "attributes": {
            "NORMAL": 21,
            "POSITION": 20,
            "TANGENT": 22,
            "TEXCOORD_0": 23
          },
          "indices": 24,
          "material": 4,
          "mode": 4
        }
      ]
    },
    {
      "name": "Ring1_Ring1_0",
      "primitives": [
        {
          "attributes": {
            "NORMAL": 26,
            "POSITION": 25,
            "TANGENT": 27,
            "TEXCOORD_0": 28
          },
          "indices": 29,
          "material": 5,
          "mode": 4
        }
      ]
    }
  ],
  "nodes": [
    {
      "children": [
        1
      ],
      "name": "RootNode (gltf orientation matrix)",
      "rotation": [
        -0.70710678118654746,
        -0,
        -0,
        0.70710678118654757
      ]
    },
    {
      "children": [
        2
      ],
      "name": "RootNode (model correction matrix)"
    },
    {
      "children": [
        3
      ],
      "matrix": [
        1,
        0,
        0,
        0,
        0,
        0,
        1,
        0,
        0,
        -1,
        0,
        0,
        0,
        0,
        0,
        1
      ],
      "name": "DroneLowAnimation.FBX"
    },
    {
      "children": [
        4
      ],
      "name": ""
    },
    {
      "children": [
        5,
        10,
        12
      ],
      "name": "RootNode"
    },
    {
      "children": [
        6,
        7,
        8,
        9
      ],
      "name": "DroneLow",
      "rotation": [
        -0.7071068286895752,
        -0,
        0,
        0.7071068286895752
      ]
    },
    {
      "mesh": 0,
      "name": "DroneLow_Drone_0"
    },
    {
      "mesh": 1,
      "name": "DroneLow_Glass_0"
    },
    {
      "mesh": 2,
      "name": "DroneLow_Light_0"
    },
    {
      "mesh": 3,
      "name": "DroneLow_Leds_0"
    },
    {
      "children": [
        11
      ],
      "name": "Ring2",
      "rotation": [
        -0.7071068286895752,
        -0,
        0,
        0.7071068286895752
      ]
    },
    {
      "mesh": 4,
      "name": "Ring2_Ring2_0"
    },
    {
      "children": [
        13
      ],
      "name": "Ring1",
      "rotation": [
        -0.7071068286895752,
        -0,
        0,
        0.7071068286895752
      ]
    },
    {
      "mesh": 5,
      "name": "Ring1_Ring1_0"
    }
  ],
  "samplers": [
    {
      "magFilter": 9729,
      "minFilter": 9987,
      "wrapS": 10497,
      "wrapT": 10497
    }
  ],
  "scene": 0,
  "scenes": [
    {
      "name": "OSG_Scene",
      "nodes": [
        0
      ]
    }
  ],
  "textures": [
    {
      "sampler": 0,
      "source": 0
    },
    {
      "sampler": 0,
      "source": 1
    },
    {
      "sampler": 0,
      "source": 2
    },
    {
      "sampler": 0,
      "source": 3
    },
    {
      "sampler": 0,
      "source": 4
    },
    {
      "sampler": 0,
      "source": 5
    },
    {
      "sampler": 0,
      "source": 6
    },
    {
      "sampler": 0,
      "source": 7
    },
    {
      "sampler": 0,
      "source": 8
    },
    {
      "sampler": 0,
      "source": 9
    },
    {
      "sampler": 0,
      "source": 10
    },
    {
      "sampler": 0,
      "source": 11
    },
    {
      "sampler": 0,
      "source": 12
    },
    {
      "sampler": 0,
      "source": 13
    },
    {
      "sampler": 0,
      "source": 14
    },
    {
      "sampler": 0,
      "source": 15
    },
    {
      "sampler": 0,
      "source": 16
    },
    {
      "sampler": 0,
      "source": 17
    },
    {
      "sampler": 0,
      "source": 18
    },
    {
      "sampler": 0,
      "source": 19
    },
    {
      "sampler": 0,
      "source": 20
    },
    {
      "sampler": 0,
      "source": 21
    },
    {
      "sampler": 0,
      "source": 22
    },
    {
      "sampler": 0,
      "source": 23
    }
  ]
}

