{
  "accessors": [
    {
      "bufferView": 2,
      "componentType": 5126,
      "count": 6467,
      "max": [
        2.0474998950958252,
        0.72289997339248657,
        3.2307000160217285
      ],
      "min": [
        -2.0474998950958252,
        -0.72289997339248657,
        -2.9762001037597656
      ],
      "type": "VEC3"
    },
    {
      "bufferView": 2,
      "byteOffset": 77604,
      "componentType": 5126,
      "count": 6467,
      "max": [
        1,
        1,
        0.99999916553497314
      ],
      "min": [
        -1,
        -1,
        -0.99921727180480957
      ],
      "type": "VEC3"
    },
    {
      "bufferView": 3,
      "componentType": 5126,
      "count": 6467,
      "max": [
        1,
        1,
        1,
        1
      ],
      "min": [
        -1,
        -1,
        -0.99999964237213135,
        -1
      ],
      "type": "VEC4"
    },
    {
      "bufferView": 1,
      "componentType": 5126,
      "count": 6467,
      "max": [
        0.98669999837875366,
        0.98750001192092896
      ],
      "min": [
        0.014399999752640724,
        0.014499999582767487
      ],
      "type": "VEC2"
    },
    {
      "bufferView": 0,
      "componentType": 5125,
      "count": 24540,
      "max": [
        6466
      ],
      "min": [
        0
      ],
      "type": "SCALAR"
    },
    {
      "bufferView": 2,
      "byteOffset": 155208,
      "componentType": 5126,
      "count": 2844,
      "max": [
        2.0474998950958252,
        0.72289997339248657,
        2.9762001037597656
      ],
      "min": [
        -2.0474998950958252,
        -0.70719999074935913,
        -2.8798000812530518
      ],
      "type": "VEC3"
    },
    {
      "bufferView": 2,
      "byteOffset": 189336,
      "componentType": 5126,
      "count": 2844,
      "max": [
        1,
        0.99194628000259399,
        0.99966293573379517
      ],
      "min": [
        -1,
        -0.99915570020675659,
        -0.99966293573379517
      ],
      "type": "VEC3"
    },
    {
      "bufferView": 3,
      "byteOffset": 103472,
      "componentType": 5126,
      "count": 2844,
      "max": [
        0.99995261430740356,
        0.99942708015441895,
        0.99989289045333862,
        1
      ],
      "min": [
        -0.99997401237487793,
        -0.99933505058288574,
        -0.98625051975250244,
        -1
      ],
      "type": "VEC4"
    },
    {
      "bufferView": 1,
      "byteOffset": 51736,
      "componentType": 5126,
      "count": 2844,
      "max": [
        0.98150002956390381,
        0.98809999227523804
      ],
      "min": [
        0.1429000049829483,
        0.20579999685287476
      ],
      "type": "VEC2"
    },
    {
      "bufferView": 0,
      "byteOffset": 98160,
      "componentType": 5125,
      "count": 4188,
      "max": [
        2843
      ],
      "min": [
        0
      ],
      "type": "SCALAR"
    }
  ],
  "asset": {
    "extras": {
      "author": "iggy-design (https://sketchfab.com/iggy-design)",
      "license": "SKETCHFAB Standard (https://sketchfab.com/licenses)",
      "source": "https://sketchfab.com/3d-models/drone-v2-sci-fi-3e3fc7f2eb8f4dcc8fee7406b24388a8",
      "title": "Drone V2 Sci Fi"
    },
    "generator": "Sketchfab-7.37.0",
    "version": "2.0"
  },
  "bufferViews": [
    {
      "buffer": 0,
      "byteLength": 114912,
      "byteOffset": 0,
      "name": "floatBufferViews",
      "target": 34963
    },
    {
      "buffer": 0,
      "byteLength": 74488,
      "byteOffset": 114912,
      "byteStride": 8,
      "name": "floatBufferViews",
      "target": 34962
    },
    {
      "buffer": 0,
      "byteLength": 223464,
      "byteOffset": 189400,
      "byteStride": 12,
      "name": "floatBufferViews",
      "target": 34962
    },
    {
      "buffer": 0,
      "byteLength": 148976,
      "byteOffset": 412864,
      "byteStride": 16,
      "name": "floatBufferViews",
      "target": 34962
    }
  ],
  "buffers": [
    {
      "byteLength": 561840,
      "uri": "scene.bin"
    }
  ],
  "extensionsRequired": [
    "KHR_materials_pbrSpecularGlossiness"
  ],
  "extensionsUsed": [
    "KHR_materials_pbrSpecularGlossiness"
  ],
  "images": [
    {
      "uri": "textures/Scene_-_Root_diffuse.png"
    },
    {
      "uri": "textures/Scene_-_Root_specularGlossiness.png"
    },
    {
      "uri": "textures/Scene_-_Root_emissive.png"
    },
    {
      "uri": "textures/Scene_-_Root_normal.png"
    }
  ],
  "materials": [
    {
      "doubleSided": true,
      "emissiveFactor": [
        1,
        1,
        1
      ],
      "emissiveTexture": {
        "index": 2,
        "texCoord": 0
      },
      "extensions": {
        "KHR_materials_pbrSpecularGlossiness": {
          "diffuseFactor": [
            1,
            1,
            1,
            1
          ],
          "diffuseTexture": {
            "index": 0,
            "texCoord": 0
          },
          "glossinessFactor": 1,
          "specularFactor": [
            1,
            1,
            1
          ],
          "specularGlossinessTexture": {
            "index": 1,
            "texCoord": 0
          }
        }
      },
      "name": "Scene_-_Root",
      "normalTexture": {
        "index": 3,
        "scale": 1,
        "texCoord": 0
      }
    }
  ],
  "meshes": [
    {
      "primitives": [
        {
          "attributes": {
            "NORMAL": 1,
            "POSITION": 0,
            "TANGENT": 2,
            "TEXCOORD_0": 3
          },
          "indices": 4,
          "material": 0,
          "mode": 4
        }
      ]
    },
    {
      "primitives": [
        {
          "attributes": {
            "NORMAL": 6,
            "POSITION": 5,
            "TANGENT": 7,
            "TEXCOORD_0": 8
          },
          "indices": 9,
          "material": 0,
          "mode": 4
        }
      ]
    }
  ],
  "nodes": [
    {
      "children": [
        1
      ],
      "name": "RootNode (gltf orientation matrix)",
      "rotation": [
        -0.70710678118654746,
        -0,
        -0,
        0.70710678118654757
      ]
    },
    {
      "children": [
        2
      ],
      "matrix": [
        1,
        0,
        0,
        0,
        0,
        0,
        -1,
        0,
        0,
        1,
        0,
        0,
        0,
        -0.12724381685256958,
        0.12724512815475464,
        1
      ],
      "name": "RootNode (model correction matrix)"
    },
    {
      "children": [
        3,
        4
      ],
      "name": "Drone V2 SciFi OBJ.obj.cleaner.materialmerger.gles"
    },
    {
      "mesh": 0,
      "name": ""
    },
    {
      "mesh": 1,
      "name": ""
    }
  ],
  "samplers": [
    {
      "magFilter": 9729,
      "minFilter": 9987,
      "wrapS": 10497,
      "wrapT": 10497
    }
  ],
  "scene": 0,
  "scenes": [
    {
      "name": "OSG_Scene",
      "nodes": [
        0
      ]
    }
  ],
  "textures": [
    {
      "sampler": 0,
      "source": 0
    },
    {
      "sampler": 0,
      "source": 1
    },
    {
      "sampler": 0,
      "source": 2
    },
    {
      "sampler": 0,
      "source": 3
    }
  ]
}

