{
  "accessors": [
    {
      "bufferView": 2,
      "componentType": 5126,
      "count": 18809,
      "max": [
        107.73541259765625,
        353.01226806640625,
        119.51256561279297
      ],
      "min": [
        -107.73541259765625,
        -467.5281982421875,
        -107.73715209960938
      ],
      "type": "VEC3"
    },
    {
      "bufferView": 2,
      "byteOffset": 225708,
      "componentType": 5126,
      "count": 18809,
      "max": [
        1,
        1,
        1
      ],
      "min": [
        -1,
        -1,
        -1
      ],
      "type": "VEC3"
    },
    {
      "bufferView": 3,
      "componentType": 5126,
      "count": 18809,
      "max": [
        1,
        1,
        1,
        1
      ],
      "min": [
        -1,
        -1,
        -1,
        -1
      ],
      "type": "VEC4"
    },
    {
      "bufferView": 1,
      "componentType": 5126,
      "count": 18809,
      "max": [
        0.99713599681854248,
        0.99037700891494751
      ],
      "min": [
        0.0041849999688565731,
        0.010262000374495983
      ],
      "type": "VEC2"
    },
    {
      "bufferView": 0,
      "componentType": 5125,
      "count": 34710,
      "max": [
        18808
      ],
      "min": [
        0
      ],
      "type": "SCALAR"
    },
    {
      "bufferView": 2,
      "byteOffset": 451416,
      "componentType": 5126,
      "count": 57041,
      "max": [
        68.563224792480469,
        -11.98763370513916,
        96.666831970214844
      ],
      "min": [
        -68.563217163085938,
        -453.05072021484375,
        -70.510353088378906
      ],
      "type": "VEC3"
    },
    {
      "bufferView": 2,
      "byteOffset": 1135908,
      "componentType": 5126,
      "count": 57041,
      "max": [
        1,
        1,
        1
      ],
      "min": [
        -1,
        -1,
        -1
      ],
      "type": "VEC3"
    },
    {
      "bufferView": 3,
      "byteOffset": 300944,
      "componentType": 5126,
      "count": 57041,
      "max": [
        1,
        1,
        1,
        1
      ],
      "min": [
        -1,
        -1,
        -1,
        -1
      ],
      "type": "VEC4"
    },
    {
      "bufferView": 1,
      "byteOffset": 150472,
      "componentType": 5126,
      "count": 57041,
      "max": [
        0.99481397867202759,
        0.99289298057556152
      ],
      "min": [
        0.0019529999699443579,
        0.0015579999890178442
      ],
      "type": "VEC2"
    },
    {
      "bufferView": 0,
      "byteOffset": 138840,
      "componentType": 5125,
      "count": 94230,
      "max": [
        57040
      ],
      "min": [
        0
      ],
      "type": "SCALAR"
    }
  ],
  "asset": {
    "extras": {
      "author": "MSGDI (https://sketchfab.com/MSGDI)",
      "license": "SKETCHFAB Standard (https://sketchfab.com/licenses)",
      "source": "https://sketchfab.com/3d-models/scifi-cruiser-claymore-dc98f9afe5144da6b3c8b0c07d866043",
      "title": "Scifi Cruiser Claymore"
    },
    "generator": "Sketchfab-9.47.0",
    "version": "2.0"
  },
  "bufferViews": [
    {
      "buffer": 0,
      "byteLength": 515760,
      "byteOffset": 0,
      "name": "floatBufferViews",
      "target": 34963
    },
    {
      "buffer": 0,
      "byteLength": 606800,
      "byteOffset": 515760,
      "byteStride": 8,
      "name": "floatBufferViews",
      "target": 34962
    },
    {
      "buffer": 0,
      "byteLength": 1820400,
      "byteOffset": 1122560,
      "byteStride": 12,
      "name": "floatBufferViews",
      "target": 34962
    },
    {
      "buffer": 0,
      "byteLength": 1213600,
      "byteOffset": 2942960,
      "byteStride": 16,
      "name": "floatBufferViews",
      "target": 34962
    }
  ],
  "buffers": [
    {
      "byteLength": 4156560,
      "uri": "scene.bin"
    }
  ],
  "images": [
    {
      "uri": "textures/ScifiCruiserClaymoreGrey_baseColor.png"
    },
    {
      "uri": "textures/ScifiCruiserClaymoreGrey_metallicRoughness.png"
    },
    {
      "uri": "textures/ScifiCruiserClaymoreGrey_emissive.png"
    },
    {
      "uri": "textures/ScifiCruiserClaymoreGrey_normal.png"
    },
    {
      "uri": "textures/ScifiSpaceshipStandardWeapons_baseColor.png"
    },
    {
      "uri": "textures/ScifiSpaceshipStandardWeapons_metallicRoughness.png"
    },
    {
      "uri": "textures/ScifiSpaceshipStandardWeapons_emissive.png"
    },
    {
      "uri": "textures/ScifiSpaceshipStandardWeapons_normal.png"
    }
  ],
  "materials": [
    {
      "doubleSided": true,
      "emissiveFactor": [
        1,
        1,
        1
      ],
      "emissiveTexture": {
        "index": 2,
        "texCoord": 0
      },
      "name": "ScifiCruiserClaymoreGrey",
      "normalTexture": {
        "index": 3,
        "scale": 1,
        "texCoord": 0
      },
      "occlusionTexture": {
        "index": 1,
        "strength": 1,
        "texCoord": 0
      },
      "pbrMetallicRoughness": {
        "baseColorFactor": [
          1,
          1,
          1,
          1
        ],
        "baseColorTexture": {
          "index": 0,
          "texCoord": 0
        },
        "metallicFactor": 1,
        "metallicRoughnessTexture": {
          "index": 1,
          "texCoord": 0
        },
        "roughnessFactor": 1
      }
    },
    {
      "doubleSided": true,
      "emissiveFactor": [
        1,
        1,
        1
      ],
      "emissiveTexture": {
        "index": 6,
        "texCoord": 0
      },
      "name": "ScifiSpaceshipStandardWeapons",
      "normalTexture": {
        "index": 7,
        "scale": 1,
        "texCoord": 0
      },
      "occlusionTexture": {
        "index": 5,
        "strength": 1,
        "texCoord": 0
      },
      "pbrMetallicRoughness": {
        "baseColorFactor": [
          1,
          1,
          1,
          1
        ],
        "baseColorTexture": {
          "index": 4,
          "texCoord": 0
        },
        "metallicFactor": 1,
        "metallicRoughnessTexture": {
          "index": 5,
          "texCoord": 0
        },
        "roughnessFactor": 1
      }
    }
  ],
  "meshes": [
    {
      "name": "ScifiCruiserClaymoreHull_002_ScifiCruiserClaymoreGrey_0",
      "primitives": [
        {
          "attributes": {
            "NORMAL": 1,
            "POSITION": 0,
            "TANGENT": 2,
            "TEXCOORD_0": 3
          },
          "indices": 4,
          "material": 0,
          "mode": 4
        }
      ]
    },
    {
      "name": "ScifiCruiserClaymoreHull_002_ScifiSpaceshipStandardWeapons_0",
      "primitives": [
        {
          "attributes": {
            "NORMAL": 6,
            "POSITION": 5,
            "TANGENT": 7,
            "TEXCOORD_0": 8
          },
          "indices": 9,
          "material": 1,
          "mode": 4
        }
      ]
    }
  ],
  "nodes": [
    {
      "children": [
        1
      ],
      "name": "RootNode (gltf orientation matrix)",
      "rotation": [
        -0.70710678118654746,
        -0,
        -0,
        0.70710678118654757
      ]
    },
    {
      "children": [
        2
      ],
      "name": "RootNode (model correction matrix)"
    },
    {
      "children": [
        3
      ],
      "matrix": [
        1,
        0,
        0,
        0,
        0,
        0,
        1,
        0,
        0,
        -1,
        0,
        0,
        0,
        0,
        0,
        1
      ],
      "name": "a8c3c443f96741e0b6aac42182dbca8f.fbx"
    },
    {
      "children": [
        4
      ],
      "name": "RootNode"
    },
    {
      "children": [
        5,
        6
      ],
      "matrix": [
        1,
        0,
        0,
        0,
        0,
        -1.6291842253046696e-07,
        -0.99999999999998679,
        0,
        0,
        0.99999999999998679,
        -1.6291842253046696e-07,
        0,
        0,
        0,
        0,
        1
      ],
      "name": "ScifiCruiserClaymoreHull_002"
    },
    {
      "mesh": 0,
      "name": "ScifiCruiserClaymoreHull_002_ScifiCruiserClaymoreGrey_0"
    },
    {
      "mesh": 1,
      "name": "ScifiCruiserClaymoreHull_002_ScifiSpaceshipStandardWeapons_0"
    }
  ],
  "samplers": [
    {
      "magFilter": 9729,
      "minFilter": 9987,
      "wrapS": 10497,
      "wrapT": 10497
    }
  ],
  "scene": 0,
  "scenes": [
    {
      "name": "OSG_Scene",
      "nodes": [
        0
      ]
    }
  ],
  "textures": [
    {
      "sampler": 0,
      "source": 0
    },
    {
      "sampler": 0,
      "source": 1
    },
    {
      "sampler": 0,
      "source": 2
    },
    {
      "sampler": 0,
      "source": 3
    },
    {
      "sampler": 0,
      "source": 4
    },
    {
      "sampler": 0,
      "source": 5
    },
    {
      "sampler": 0,
      "source": 6
    },
    {
      "sampler": 0,
      "source": 7
    }
  ]
}

