{
  "accessors": [
    {
      "bufferView": 2,
      "componentType": 5126,
      "count": 16,
      "max": [
        0.33820000290870667,
        -0.36790001392364502,
        -2.0178999900817871
      ],
      "min": [
        -0.33820000290870667,
        -0.57940000295639038,
        -2.7044999599456787
      ],
      "type": "VEC3"
    },
    {
      "bufferView": 2,
      "byteOffset": 192,
      "componentType": 5126,
      "count": 16,
      "max": [
        0.85230851173400879,
        0.5274052619934082,
        0.071804605424404144
      ],
      "min": [
        -0.85230851173400879,
        0.51950520277023315,
        0.060700606554746628
      ],
      "type": "VEC3"
    },
    {
      "bufferView": 3,
      "componentType": 5126,
      "count": 16,
      "max": [
        0.53215217590332031,
        -0.77293169498443604,
        -0.098164044320583344,
        1
      ],
      "min": [
        -0.53215217590332031,
        -0.84093868732452393,
        -0.38045370578765869,
        -1
      ],
      "type": "VEC4"
    },
    {
      "bufferView": 1,
      "componentType": 5126,
      "count": 16,
      "max": [
        0.80070000886917114,
        0.92170000076293945
      ],
      "min": [
        0.73070001602172852,
        0.74309998750686646
      ],
      "type": "VEC2"
    },
    {
      "bufferView": 0,
      "componentType": 5125,
      "count": 24,
      "max": [
        15
      ],
      "min": [
        0
      ],
      "type": "SCALAR"
    },
    {
      "bufferView": 2,
      "byteOffset": 384,
      "componentType": 5126,
      "count": 7807,
      "max": [
        1.2750999927520752,
        1.8758000135421753,
        2.2325000762939453
      ],
      "min": [
        -1.2750999927520752,
        -1.7154999971389771,
        -3.121999979019165
      ],
      "type": "VEC3"
    },
    {
      "bufferView": 2,
      "byteOffset": 94068,
      "componentType": 5126,
      "count": 7807,
      "max": [
        1,
        0.99988150596618652,
        0.99908369779586792
      ],
      "min": [
        -1,
        -0.99997341632843018,
        -0.99958807229995728
      ],
      "type": "VEC3"
    },
    {
      "bufferView": 3,
      "byteOffset": 256,
      "componentType": 5126,
      "count": 7807,
      "max": [
        1,
        0.99990975856781006,
        0.99999946355819702,
        1
      ],
      "min": [
        -1,
        -0.99934929609298706,
        -0.99988150596618652,
        -1
      ],
      "type": "VEC4"
    },
    {
      "bufferView": 1,
      "byteOffset": 128,
      "componentType": 5126,
      "count": 7807,
      "max": [
        0.98669999837875366,
        0.98750001192092896
      ],
      "min": [
        0.014399999752640724,
        0.014499999582767487
      ],
      "type": "VEC2"
    },
    {
      "bufferView": 0,
      "byteOffset": 96,
      "componentType": 5125,
      "count": 29724,
      "max": [
        7806
      ],
      "min": [
        0
      ],
      "type": "SCALAR"
    },
    {
      "bufferView": 2,
      "byteOffset": 187752,
      "componentType": 5126,
      "count": 3066,
      "max": [
        1.4128999710083008,
        1.2568000555038452,
        1.8070000410079956
      ],
      "min": [
        -1.4128999710083008,
        -1.6399999856948853,
        -2.8629999160766602
      ],
      "type": "VEC3"
    },
    {
      "bufferView": 2,
      "byteOffset": 224544,
      "componentType": 5126,
      "count": 3066,
      "max": [
        1,
        0.98843979835510254,
        0.99976414442062378
      ],
      "min": [
        -1,
        -0.99820905923843384,
        -0.99976414442062378
      ],
      "type": "VEC3"
    },
    {
      "bufferView": 3,
      "byteOffset": 125168,
      "componentType": 5126,
      "count": 3066,
      "max": [
        0.99998337030410767,
        0.99944978952407837,
        0.97677052021026611,
        1
      ],
      "min": [
        -0.99998337030410767,
        -0.99933338165283203,
        -0.9997984766960144,
        -1
      ],
      "type": "VEC4"
    },
    {
      "bufferView": 1,
      "byteOffset": 62584,
      "componentType": 5126,
      "count": 3066,
      "max": [
        0.98150002956390381,
        0.98809999227523804
      ],
      "min": [
        0.1429000049829483,
        0.20579999685287476
      ],
      "type": "VEC2"
    },
    {
      "bufferView": 0,
      "byteOffset": 118992,
      "componentType": 5125,
      "count": 4404,
      "max": [
        3065
      ],
      "min": [
        0
      ],
      "type": "SCALAR"
    }
  ],
  "asset": {
    "extras": {
      "author": "iggy-design (https://sketchfab.com/iggy-design)",
      "license": "SKETCHFAB Standard (https://sketchfab.com/licenses)",
      "source": "https://sketchfab.com/3d-models/drone-v9-cybertech-8adf827b86b541488fa92c6d57ecfdf7",
      "title": "Drone V9 Cybertech"
    },
    "generator": "Sketchfab-7.27.0",
    "version": "2.0"
  },
  "bufferViews": [
    {
      "buffer": 0,
      "byteLength": 136608,
      "byteOffset": 0,
      "name": "floatBufferViews",
      "target": 34963
    },
    {
      "buffer": 0,
      "byteLength": 87112,
      "byteOffset": 136608,
      "byteStride": 8,
      "name": "floatBufferViews",
      "target": 34962
    },
    {
      "buffer": 0,
      "byteLength": 261336,
      "byteOffset": 223720,
      "byteStride": 12,
      "name": "floatBufferViews",
      "target": 34962
    },
    {
      "buffer": 0,
      "byteLength": 174224,
      "byteOffset": 485056,
      "byteStride": 16,
      "name": "floatBufferViews",
      "target": 34962
    }
  ],
  "buffers": [
    {
      "byteLength": 659280,
      "uri": "scene.bin"
    }
  ],
  "extensionsRequired": [
    "KHR_materials_pbrSpecularGlossiness"
  ],
  "extensionsUsed": [
    "KHR_materials_pbrSpecularGlossiness"
  ],
  "images": [
    {
      "uri": "textures/Scene_-_Root_diffuse.png"
    },
    {
      "uri": "textures/Scene_-_Root_specularGlossiness.png"
    },
    {
      "uri": "textures/Scene_-_Root_emissive.png"
    },
    {
      "uri": "textures/Scene_-_Root_normal.png"
    }
  ],
  "materials": [
    {
      "doubleSided": true,
      "emissiveFactor": [
        1,
        1,
        1
      ],
      "emissiveTexture": {
        "index": 2,
        "texCoord": 0
      },
      "extensions": {
        "KHR_materials_pbrSpecularGlossiness": {
          "diffuseFactor": [
            1,
            1,
            1,
            1
          ],
          "diffuseTexture": {
            "index": 0,
            "texCoord": 0
          },
          "glossinessFactor": 1,
          "specularFactor": [
            1,
            1,
            1
          ],
          "specularGlossinessTexture": {
            "index": 1,
            "texCoord": 0
          }
        }
      },
      "name": "Scene_-_Root",
      "normalTexture": {
        "index": 3,
        "scale": 1,
        "texCoord": 0
      }
    }
  ],
  "meshes": [
    {
      "primitives": [
        {
          "attributes": {
            "NORMAL": 1,
            "POSITION": 0,
            "TANGENT": 2,
            "TEXCOORD_0": 3
          },
          "indices": 4,
          "material": 0,
          "mode": 4
        }
      ]
    },
    {
      "primitives": [
        {
          "attributes": {
            "NORMAL": 6,
            "POSITION": 5,
            "TANGENT": 7,
            "TEXCOORD_0": 8
          },
          "indices": 9,
          "material": 0,
          "mode": 4
        }
      ]
    },
    {
      "primitives": [
        {
          "attributes": {
            "NORMAL": 11,
            "POSITION": 10,
            "TANGENT": 12,
            "TEXCOORD_0": 13
          },
          "indices": 14,
          "material": 0,
          "mode": 4
        }
      ]
    }
  ],
  "nodes": [
    {
      "children": [
        1
      ],
      "name": "RootNode (gltf orientation matrix)",
      "rotation": [
        -0.70710678118654746,
        -0,
        -0,
        0.70710678118654757
      ]
    },
    {
      "children": [
        2
      ],
      "matrix": [
        1,
        0,
        0,
        0,
        0,
        0,
        -1,
        0,
        0,
        1,
        0,
        0,
        0,
        0.52490389347076416,
        -0.36460793018341064,
        1
      ],
      "name": "RootNode (model correction matrix)"
    },
    {
      "children": [
        3,
        4,
        5
      ],
      "name": "Drone V9 Cybertech OBJ.obj.cleaner.materialmerger.gles"
    },
    {
      "mesh": 0,
      "name": ""
    },
    {
      "mesh": 1,
      "name": ""
    },
    {
      "mesh": 2,
      "name": ""
    }
  ],
  "samplers": [
    {
      "magFilter": 9729,
      "minFilter": 9987,
      "wrapS": 10497,
      "wrapT": 10497
    }
  ],
  "scene": 0,
  "scenes": [
    {
      "name": "OSG_Scene",
      "nodes": [
        0
      ]
    }
  ],
  "textures": [
    {
      "sampler": 0,
      "source": 0
    },
    {
      "sampler": 0,
      "source": 1
    },
    {
      "sampler": 0,
      "source": 2
    },
    {
      "sampler": 0,
      "source": 3
    }
  ]
}

