{
  "accessors": [
    {
      "bufferView": 2,
      "componentType": 5126,
      "count": 14182,
      "max": [
        124.81251525878906,
        209.43792724609375,
        79.86328125
      ],
      "min": [
        -124.81251525878906,
        -300.01397705078125,
        -44.9986572265625
      ],
      "type": "VEC3"
    },
    {
      "bufferView": 2,
      "byteOffset": 170184,
      "componentType": 5126,
      "count": 14182,
      "max": [
        1,
        1,
        1
      ],
      "min": [
        -1,
        -1,
        -1
      ],
      "type": "VEC3"
    },
    {
      "bufferView": 3,
      "componentType": 5126,
      "count": 14182,
      "max": [
        1,
        1,
        1,
        1
      ],
      "min": [
        -1,
        -1,
        -1,
        -1
      ],
      "type": "VEC4"
    },
    {
      "bufferView": 1,
      "componentType": 5126,
      "count": 14182,
      "max": [
        0.99771100282669067,
        0.99748402833938599
      ],
      "min": [
        0.0041760001331567764,
        0.0029720000457018614
      ],
      "type": "VEC2"
    },
    {
      "bufferView": 0,
      "componentType": 5125,
      "count": 24426,
      "max": [
        14181
      ],
      "min": [
        0
      ],
      "type": "SCALAR"
    },
    {
      "bufferView": 2,
      "byteOffset": 340368,
      "componentType": 5126,
      "count": 32192,
      "max": [
        115.80086517333984,
        189.531005859375,
        49.698780059814453
      ],
      "min": [
        -115.80086517333984,
        -251.93997192382812,
        -40.659648895263672
      ],
      "type": "VEC3"
    },
    {
      "bufferView": 2,
      "byteOffset": 726672,
      "componentType": 5126,
      "count": 32192,
      "max": [
        1,
        1,
        1
      ],
      "min": [
        -1,
        -1,
        -1
      ],
      "type": "VEC3"
    },
    {
      "bufferView": 3,
      "byteOffset": 226912,
      "componentType": 5126,
      "count": 32192,
      "max": [
        1,
        1,
        1,
        1
      ],
      "min": [
        -1,
        -1,
        -1,
        -1
      ],
      "type": "VEC4"
    },
    {
      "bufferView": 1,
      "byteOffset": 113456,
      "componentType": 5126,
      "count": 32192,
      "max": [
        0.99481397867202759,
        0.99725699424743652
      ],
      "min": [
        0.0019529999699443579,
        0.0015579999890178442
      ],
      "type": "VEC2"
    },
    {
      "bufferView": 0,
      "byteOffset": 97704,
      "componentType": 5125,
      "count": 55050,
      "max": [
        32191
      ],
      "min": [
        0
      ],
      "type": "SCALAR"
    }
  ],
  "asset": {
    "extras": {
      "author": "MSGDI (https://sketchfab.com/MSGDI)",
      "license": "SKETCHFAB Standard (https://sketchfab.com/licenses)",
      "source": "https://sketchfab.com/3d-models/scifi-destroyer-steelblade-b325ae4034f546c9882bd6c57208a277",
      "title": "Scifi Destroyer Steelblade"
    },
    "generator": "Sketchfab-9.47.0",
    "version": "2.0"
  },
  "bufferViews": [
    {
      "buffer": 0,
      "byteLength": 317904,
      "byteOffset": 0,
      "name": "floatBufferViews",
      "target": 34963
    },
    {
      "buffer": 0,
      "byteLength": 370992,
      "byteOffset": 317904,
      "byteStride": 8,
      "name": "floatBufferViews",
      "target": 34962
    },
    {
      "buffer": 0,
      "byteLength": 1112976,
      "byteOffset": 688896,
      "byteStride": 12,
      "name": "floatBufferViews",
      "target": 34962
    },
    {
      "buffer": 0,
      "byteLength": 741984,
      "byteOffset": 1801872,
      "byteStride": 16,
      "name": "floatBufferViews",
      "target": 34962
    }
  ],
  "buffers": [
    {
      "byteLength": 2543856,
      "uri": "scene.bin"
    }
  ],
  "images": [
    {
      "uri": "textures/ScifiDestroyerSteelbladeGrey_baseColor.png"
    },
    {
      "uri": "textures/ScifiDestroyerSteelbladeGrey_metallicRoughness.png"
    },
    {
      "uri": "textures/ScifiDestroyerSteelbladeGrey_emissive.png"
    },
    {
      "uri": "textures/ScifiDestroyerSteelbladeGrey_normal.png"
    },
    {
      "uri": "textures/ScifiSpaceshipStandardWeapons_baseColor.png"
    },
    {
      "uri": "textures/ScifiSpaceshipStandardWeapons_metallicRoughness.png"
    },
    {
      "uri": "textures/ScifiSpaceshipStandardWeapons_emissive.png"
    },
    {
      "uri": "textures/ScifiSpaceshipStandardWeapons_normal.png"
    }
  ],
  "materials": [
    {
      "doubleSided": true,
      "emissiveFactor": [
        1,
        1,
        1
      ],
      "emissiveTexture": {
        "index": 2,
        "texCoord": 0
      },
      "name": "ScifiDestroyerSteelbladeGrey",
      "normalTexture": {
        "index": 3,
        "scale": 1,
        "texCoord": 0
      },
      "occlusionTexture": {
        "index": 1,
        "strength": 1,
        "texCoord": 0
      },
      "pbrMetallicRoughness": {
        "baseColorFactor": [
          1,
          1,
          1,
          1
        ],
        "baseColorTexture": {
          "index": 0,
          "texCoord": 0
        },
        "metallicFactor": 1,
        "metallicRoughnessTexture": {
          "index": 1,
          "texCoord": 0
        },
        "roughnessFactor": 1
      }
    },
    {
      "doubleSided": true,
      "emissiveFactor": [
        1,
        1,
        1
      ],
      "emissiveTexture": {
        "index": 6,
        "texCoord": 0
      },
      "name": "ScifiSpaceshipStandardWeapons",
      "normalTexture": {
        "index": 7,
        "scale": 1,
        "texCoord": 0
      },
      "occlusionTexture": {
        "index": 5,
        "strength": 1,
        "texCoord": 0
      },
      "pbrMetallicRoughness": {
        "baseColorFactor": [
          1,
          1,
          1,
          1
        ],
        "baseColorTexture": {
          "index": 4,
          "texCoord": 0
        },
        "metallicFactor": 1,
        "metallicRoughnessTexture": {
          "index": 5,
          "texCoord": 0
        },
        "roughnessFactor": 1
      }
    }
  ],
  "meshes": [
    {
      "name": "ScifiDestroyerSteelbladeHull_001_ScifiDestroyerSteelbladeGrey_0",
      "primitives": [
        {
          "attributes": {
            "NORMAL": 1,
            "POSITION": 0,
            "TANGENT": 2,
            "TEXCOORD_0": 3
          },
          "indices": 4,
          "material": 0,
          "mode": 4
        }
      ]
    },
    {
      "name": "ScifiDestroyerSteelbladeHull_001_ScifiSpaceshipStandardWeapons_0",
      "primitives": [
        {
          "attributes": {
            "NORMAL": 6,
            "POSITION": 5,
            "TANGENT": 7,
            "TEXCOORD_0": 8
          },
          "indices": 9,
          "material": 1,
          "mode": 4
        }
      ]
    }
  ],
  "nodes": [
    {
      "children": [
        1
      ],
      "name": "RootNode (gltf orientation matrix)",
      "rotation": [
        -0.70710678118654746,
        -0,
        -0,
        0.70710678118654757
      ]
    },
    {
      "children": [
        2
      ],
      "name": "RootNode (model correction matrix)"
    },
    {
      "children": [
        3
      ],
      "matrix": [
        1,
        0,
        0,
        0,
        0,
        0,
        1,
        0,
        0,
        -1,
        0,
        0,
        0,
        0,
        0,
        1
      ],
      "name": "811a23b54f1e4b52940682693cfa41e3.fbx"
    },
    {
      "children": [
        4
      ],
      "name": "RootNode"
    },
    {
      "children": [
        5,
        6
      ],
      "matrix": [
        1,
        0,
        0,
        0,
        0,
        -1.6291842253046696e-07,
        -0.99999999999998679,
        0,
        0,
        0.99999999999998679,
        -1.6291842253046696e-07,
        0,
        0,
        0,
        0,
        1
      ],
      "name": "ScifiDestroyerSteelbladeHull_001"
    },
    {
      "mesh": 0,
      "name": "ScifiDestroyerSteelbladeHull_001_ScifiDestroyerSteelbladeGrey_0"
    },
    {
      "mesh": 1,
      "name": "ScifiDestroyerSteelbladeHull_001_ScifiSpaceshipStandardWeapons_0"
    }
  ],
  "samplers": [
    {
      "magFilter": 9729,
      "minFilter": 9987,
      "wrapS": 10497,
      "wrapT": 10497
    }
  ],
  "scene": 0,
  "scenes": [
    {
      "name": "OSG_Scene",
      "nodes": [
        0
      ]
    }
  ],
  "textures": [
    {
      "sampler": 0,
      "source": 0
    },
    {
      "sampler": 0,
      "source": 1
    },
    {
      "sampler": 0,
      "source": 2
    },
    {
      "sampler": 0,
      "source": 3
    },
    {
      "sampler": 0,
      "source": 4
    },
    {
      "sampler": 0,
      "source": 5
    },
    {
      "sampler": 0,
      "source": 6
    },
    {
      "sampler": 0,
      "source": 7
    }
  ]
}

