{
  "accessors": [
    {
      "bufferView": 2,
      "componentType": 5126,
      "count": 2285,
      "max": [
        13.124697685241699,
        13.41461181640625,
        2.6123461723327637
      ],
      "min": [
        -13.124697685241699,
        -18.482498168945312,
        -2.6123461723327637
      ],
      "type": "VEC3"
    },
    {
      "bufferView": 2,
      "byteOffset": 27420,
      "componentType": 5126,
      "count": 2285,
      "max": [
        1,
        1,
        1
      ],
      "min": [
        -1,
        -1,
        -1
      ],
      "type": "VEC3"
    },
    {
      "bufferView": 3,
      "componentType": 5126,
      "count": 2285,
      "max": [
        1,
        1,
        1,
        1
      ],
      "min": [
        -1,
        -0.98373943567276001,
        -1,
        -1
      ],
      "type": "VEC4"
    },
    {
      "bufferView": 1,
      "componentType": 5126,
      "count": 2285,
      "max": [
        0.99501746892929077,
        0.99348235130310059
      ],
      "min": [
        0.0040419455617666245,
        0.0048035364598035812
      ],
      "type": "VEC2"
    },
    {
      "bufferView": 1,
      "byteOffset": 18280,
      "componentType": 5126,
      "count": 2285,
      "max": [
        0.99501746892929077,
        0.99348235130310059
      ],
      "min": [
        0.0040419455617666245,
        0.0048035364598035812
      ],
      "type": "VEC2"
    },
    {
      "bufferView": 1,
      "byteOffset": 36560,
      "componentType": 5126,
      "count": 2285,
      "max": [
        0.99501746892929077,
        0.99348235130310059
      ],
      "min": [
        0.0040419455617666245,
        0.0048035364598035812
      ],
      "type": "VEC2"
    },
    {
      "bufferView": 1,
      "byteOffset": 54840,
      "componentType": 5126,
      "count": 2285,
      "max": [
        0.99501746892929077,
        0.99348235130310059
      ],
      "min": [
        0.0040419455617666245,
        0.0048035364598035812
      ],
      "type": "VEC2"
    },
    {
      "bufferView": 0,
      "componentType": 5125,
      "count": 3552,
      "max": [
        2284
      ],
      "min": [
        0
      ],
      "type": "SCALAR"
    },
    {
      "bufferView": 2,
      "byteOffset": 54840,
      "componentType": 5126,
      "count": 2716,
      "max": [
        1.7988718748092651,
        4.3950042724609375,
        4.0839328765869141
      ],
      "min": [
        -1.7988717555999756,
        -6.0827093124389648,
        2.2892401218414307
      ],
      "type": "VEC3"
    },
    {
      "bufferView": 2,
      "byteOffset": 87432,
      "componentType": 5126,
      "count": 2716,
      "max": [
        1,
        1,
        1
      ],
      "min": [
        -1,
        -1,
        -1
      ],
      "type": "VEC3"
    },
    {
      "bufferView": 3,
      "byteOffset": 36560,
      "componentType": 5126,
      "count": 2716,
      "max": [
        1,
        1,
        1,
        1
      ],
      "min": [
        -1,
        -1,
        -1,
        -1
      ],
      "type": "VEC4"
    },
    {
      "bufferView": 1,
      "byteOffset": 73120,
      "componentType": 5126,
      "count": 2716,
      "max": [
        0.99709475040435791,
        0.99523365497589111
      ],
      "min": [
        0.023293375968933105,
        0.0035065491683781147
      ],
      "type": "VEC2"
    },
    {
      "bufferView": 1,
      "byteOffset": 94848,
      "componentType": 5126,
      "count": 2716,
      "max": [
        0.99709475040435791,
        0.99523365497589111
      ],
      "min": [
        0.023293375968933105,
        0.0035065491683781147
      ],
      "type": "VEC2"
    },
    {
      "bufferView": 1,
      "byteOffset": 116576,
      "componentType": 5126,
      "count": 2716,
      "max": [
        0.99709475040435791,
        0.99523365497589111
      ],
      "min": [
        0.023293375968933105,
        0.0035065491683781147
      ],
      "type": "VEC2"
    },
    {
      "bufferView": 1,
      "byteOffset": 138304,
      "componentType": 5126,
      "count": 2716,
      "max": [
        0.99709475040435791,
        0.99523365497589111
      ],
      "min": [
        0.023293375968933105,
        0.0035065491683781147
      ],
      "type": "VEC2"
    },
    {
      "bufferView": 0,
      "byteOffset": 14208,
      "componentType": 5125,
      "count": 4164,
      "max": [
        2715
      ],
      "min": [
        0
      ],
      "type": "SCALAR"
    }
  ],
  "asset": {
    "extras": {
      "author": "MSGDI (https://sketchfab.com/MSGDI)",
      "license": "SKETCHFAB Standard (https://sketchfab.com/licenses)",
      "source": "https://sketchfab.com/3d-models/enkar-republic-frigate-menhars-78d3edd5ba234a6c8d3db7e1b8036b42",
      "title": "Enkar Republic Frigate Menhars"
    },
    "generator": "Sketchfab-9.94.0",
    "version": "2.0"
  },
  "bufferViews": [
    {
      "buffer": 0,
      "byteLength": 30864,
      "byteOffset": 0,
      "name": "floatBufferViews",
      "target": 34963
    },
    {
      "buffer": 0,
      "byteLength": 160032,
      "byteOffset": 30864,
      "byteStride": 8,
      "name": "floatBufferViews",
      "target": 34962
    },
    {
      "buffer": 0,
      "byteLength": 120024,
      "byteOffset": 190896,
      "byteStride": 12,
      "name": "floatBufferViews",
      "target": 34962
    },
    {
      "buffer": 0,
      "byteLength": 80016,
      "byteOffset": 310920,
      "byteStride": 16,
      "name": "floatBufferViews",
      "target": 34962
    }
  ],
  "buffers": [
    {
      "byteLength": 390936,
      "uri": "scene.bin"
    }
  ],
  "images": [
    {
      "uri": "textures/EnkarRepublicFrigateMenharsGreen_baseColor.png"
    },
    {
      "uri": "textures/EnkarRepublicFrigateMenharsGreen_metallicRoughness.png"
    },
    {
      "uri": "textures/EnkarRepublicFrigateMenharsGreen_emissive.png"
    },
    {
      "uri": "textures/EnkarRepublicFrigateMenharsGreen_normal.png"
    },
    {
      "uri": "textures/EnkarRepublicWeapons_baseColor.png"
    },
    {
      "uri": "textures/EnkarRepublicWeapons_metallicRoughness.png"
    },
    {
      "uri": "textures/EnkarRepublicWeapons_emissive.png"
    },
    {
      "uri": "textures/EnkarRepublicWeapons_normal.png"
    }
  ],
  "materials": [
    {
      "doubleSided": true,
      "emissiveFactor": [
        1,
        1,
        1
      ],
      "emissiveTexture": {
        "index": 2,
        "texCoord": 0
      },
      "name": "EnkarRepublicFrigateMenharsGreen",
      "normalTexture": {
        "index": 3,
        "scale": 1,
        "texCoord": 0
      },
      "occlusionTexture": {
        "index": 1,
        "strength": 1,
        "texCoord": 0
      },
      "pbrMetallicRoughness": {
        "baseColorFactor": [
          1,
          1,
          1,
          1
        ],
        "baseColorTexture": {
          "index": 0,
          "texCoord": 0
        },
        "metallicFactor": 1,
        "metallicRoughnessTexture": {
          "index": 1,
          "texCoord": 0
        },
        "roughnessFactor": 1
      }
    },
    {
      "doubleSided": true,
      "emissiveFactor": [
        1,
        1,
        1
      ],
      "emissiveTexture": {
        "index": 6,
        "texCoord": 0
      },
      "name": "EnkarRepublicWeapons",
      "normalTexture": {
        "index": 7,
        "scale": 1,
        "texCoord": 0
      },
      "occlusionTexture": {
        "index": 5,
        "strength": 1,
        "texCoord": 0
      },
      "pbrMetallicRoughness": {
        "baseColorFactor": [
          1,
          1,
          1,
          1
        ],
        "baseColorTexture": {
          "index": 4,
          "texCoord": 0
        },
        "metallicFactor": 1,
        "metallicRoughnessTexture": {
          "index": 5,
          "texCoord": 0
        },
        "roughnessFactor": 1
      }
    }
  ],
  "meshes": [
    {
      "name": "EnkarRepublicFrigateMenharsPresentation_EnkarRepublicFrigateMenharsGreen_0",
      "primitives": [
        {
          "attributes": {
            "NORMAL": 1,
            "POSITION": 0,
            "TANGENT": 2,
            "TEXCOORD_0": 3,
            "TEXCOORD_1": 4,
            "TEXCOORD_2": 5,
            "TEXCOORD_3": 6
          },
          "indices": 7,
          "material": 0,
          "mode": 4
        }
      ]
    },
    {
      "name": "EnkarRepublicFrigateMenharsPresentation_EnkarRepublicWeapons_0",
      "primitives": [
        {
          "attributes": {
            "NORMAL": 9,
            "POSITION": 8,
            "TANGENT": 10,
            "TEXCOORD_0": 11,
            "TEXCOORD_1": 12,
            "TEXCOORD_2": 13,
            "TEXCOORD_3": 14
          },
          "indices": 15,
          "material": 1,
          "mode": 4
        }
      ]
    }
  ],
  "nodes": [
    {
      "children": [
        1
      ],
      "name": "RootNode (gltf orientation matrix)",
      "rotation": [
        -0.70710678118654746,
        -0,
        -0,
        0.70710678118654757
      ]
    },
    {
      "children": [
        2
      ],
      "name": "RootNode (model correction matrix)"
    },
    {
      "children": [
        3
      ],
      "matrix": [
        1,
        0,
        0,
        0,
        0,
        0,
        1,
        0,
        0,
        -1,
        0,
        0,
        0,
        0,
        0,
        1
      ],
      "name": "102761c666b84b2495b5d3e660b231ae.fbx"
    },
    {
      "children": [
        4
      ],
      "name": "RootNode"
    },
    {
      "children": [
        5,
        6
      ],
      "matrix": [
        100,
        0,
        0,
        0,
        0,
        -1.6292067939183141e-05,
        -99.999999999998678,
        0,
        0,
        99.999999999998678,
        -1.6292067939183141e-05,
        0,
        0,
        0,
        0,
        1
      ],
      "name": "EnkarRepublicFrigateMenharsPresentation"
    },
    {
      "mesh": 0,
      "name": "EnkarRepublicFrigateMenharsPresentation_EnkarRepublicFrigateMenharsGreen_0"
    },
    {
      "mesh": 1,
      "name": "EnkarRepublicFrigateMenharsPresentation_EnkarRepublicWeapons_0"
    }
  ],
  "samplers": [
    {
      "magFilter": 9729,
      "minFilter": 9987,
      "wrapS": 10497,
      "wrapT": 10497
    }
  ],
  "scene": 0,
  "scenes": [
    {
      "name": "OSG_Scene",
      "nodes": [
        0
      ]
    }
  ],
  "textures": [
    {
      "sampler": 0,
      "source": 0
    },
    {
      "sampler": 0,
      "source": 1
    },
    {
      "sampler": 0,
      "source": 2
    },
    {
      "sampler": 0,
      "source": 3
    },
    {
      "sampler": 0,
      "source": 4
    },
    {
      "sampler": 0,
      "source": 5
    },
    {
      "sampler": 0,
      "source": 6
    },
    {
      "sampler": 0,
      "source": 7
    }
  ]
}

