<?xml version="1.0" encoding="UTF-8" standalone="no" ?>
<!DOCTYPE svg PUBLIC "-//W3C//DTD SVG 1.1//EN" "http://www.w3.org/Graphics/SVG/1.1/DTD/svg11.dtd">
<svg xmlns="http://www.w3.org/2000/svg" xmlns:xlink="http://www.w3.org/1999/xlink" version="1.1" width="1280" height="1024" viewBox="0 0 1280 1024" xml:space="preserve">
<desc>Created with Fabric.js 3.6.3</desc>
<defs>
</defs>
<g transform="matrix(1.9692780337941629 0 0 1.9692780337941629 640.0153846153846 512.012312418764)" id="background-logo"  >
<rect style="stroke: none; stroke-width: 1; stroke-dasharray: none; stroke-linecap: butt; stroke-dashoffset: 0; stroke-linejoin: miter; stroke-miterlimit: 4; fill: rgb(0,61,98); fill-rule: nonzero; opacity: 1;"  paint-order="stroke"  x="-325" y="-260" rx="0" ry="0" width="650" height="520" />
</g>
<g transform="matrix(1.9692780337941629 0 0 1.9692780337941629 640.0153846153846 388.5701829097195)" id="logo-logo"  >
<g style=""  paint-order="stroke"   >
		<g transform="matrix(1.819920031672989 0 0 -1.819920031672989 -62.17108869650389 -3.6080412551381187)"  >
<path style="stroke: none; stroke-width: 1; stroke-dasharray: none; stroke-linecap: butt; stroke-dashoffset: 0; stroke-linejoin: miter; stroke-miterlimit: 4; fill: rgb(115,255,190); fill-rule: nonzero; opacity: 1;"  paint-order="stroke"  transform=" translate(-10.616886800507878, -36.05769191949748)" d="m 0 0 c 7.018 0 13.612 2.737 18.569 7.707 c 4.865 4.878 7.656 11.75 7.656 18.854 v 13.602 c 0 0.167 0.111 0.238 0.178 0.267 c 0.066 0.027 0.196 0.055 0.314 -0.064 L 43.616 23.469 c 1.282 -1.283 3.446 -0.925 4.247 0.702 c 0.501 1.017 0.299 2.24 -0.503 3.042 L 28.678 45.895 c -1.298 1.298 -3.148 1.686 -4.849 1.024 c -1.778 -0.692 -2.9 -2.463 -2.9 -4.37 V 26.578 c 0 -5.807 -2.286 -11.381 -6.273 -15.294 C 10.721 7.423 5.517 5.296 -0.031 5.296 c -10.179 0.015 -18.835 7.28 -20.582 17.276 c -0.708 4.054 -1.041 8.214 -0.988 12.365 c 0.149 11.739 3.52 23.112 9.684 33.137 c 0.737 1.199 0.426 2.762 -0.729 3.566 h -0.001 c -1.257 0.875 -2.986 0.504 -3.788 -0.8 c -6.658 -10.832 -10.299 -23.132 -10.461 -35.835 c -0.057 -4.479 0.302 -8.968 1.066 -13.344 C -23.64 9.128 -12.793 0.019 -0.039 0 Z" stroke-linecap="round" />
</g>
		<g transform="matrix(1.819920031672989 0 0 -1.819920031672989 10.325711982750931 0)"  >
<path style="stroke: none; stroke-width: 1; stroke-dasharray: none; stroke-linecap: butt; stroke-dashoffset: 0; stroke-linejoin: miter; stroke-miterlimit: 4; fill: rgb(115,255,190); fill-rule: nonzero; opacity: 1;"  paint-order="stroke"  transform=" translate(64.50645593018555, 14.648535440136854)" d="m 0 0 c -2.483 11.951 -13.206 20.63 -25.507 20.636 c -14.366 0 -26.066 -11.688 -26.081 -26.053 l -0.016 -14.697 c 0 -0.335 -0.24 -0.471 -0.343 -0.514 c -0.104 -0.043 -0.37 -0.116 -0.607 0.121 L -91.171 18.11 c -1.572 1.573 -3.662 2.438 -5.887 2.438 c -1.546 0 -3.064 -0.433 -4.39 -1.252 c -2.424 -1.497 -3.929 -4.266 -3.929 -7.226 v -34.353 c 0 -2.575 -0.913 -4.971 -2.571 -6.746 c -1.837 -1.968 -4.327 -3.051 -7.026 -3.051 c -4.661 0.007 -8.622 3.321 -9.419 7.882 c -0.587 3.362 -0.863 6.816 -0.819 10.267 c 0.368 28.937 25.12 53.808 54.05 54.31 c 14.781 0.251 28.766 -5.292 39.319 -15.541 c 1.604 -1.557 3.747 -2.492 5.983 -2.478 c 2.239 0.015 4.332 0.905 5.898 2.508 c 3.206 3.282 3.143 8.562 -0.14 11.768 c -13.776 13.455 -32.073 20.732 -51.349 20.384 c -18.372 -0.319 -35.868 -7.909 -49.266 -21.371 c -1.97 -1.979 -3.809 -4.046 -5.518 -6.192 c -0.923 -1.158 -0.824 -2.879 0.33 -3.808 c 1.163 -0.936 2.837 -0.718 3.75 0.431 c 1.606 2.022 3.337 3.97 5.192 5.834 c 12.421 12.481 28.617 19.517 45.606 19.812 c 17.801 0.305 34.718 -6.387 47.467 -18.792 c 1.199 -1.167 1.3 -3.086 0.223 -4.277 c -0.628 -0.695 -1.491 -1.047 -2.429 -0.996 c -0.721 0.041 -1.444 0.38 -2.036 0.955 c -11.32 11.005 -26.264 17.067 -42.076 17.067 c -0.348 0 -0.694 -0.003 -1.045 -0.009 c -31.716 -0.551 -58.851 -27.815 -59.255 -59.537 c -0.048 -3.78 0.255 -7.563 0.899 -11.246 c 1.239 -7.098 7.391 -12.256 14.65 -12.267 c 4.066 0 7.864 1.611 10.696 4.536 c 2.696 2.787 4.181 6.555 4.181 10.611 v 34.32 c 0 1.272 0.701 2.409 1.786 2.895 c 0.465 0.208 0.963 0.296 1.473 0.257 c 0.757 -0.056 1.457 -0.427 1.993 -0.964 l 40.77 -40.768 c 1.297 -1.298 3.146 -1.686 4.848 -1.025 c 1.775 0.691 2.899 2.46 2.9 4.366 l 0.02 17.725 c 0.012 11.448 9.341 20.763 20.794 20.763 c 9.794 -0.004 18.337 -6.909 20.313 -16.418 c 0.919 -4.422 1.386 -8.974 1.389 -13.527 c 0.011 -17.688 -6.916 -34.36 -19.506 -46.944 c -12.571 -12.564 -29.219 -19.484 -46.878 -19.484 h -0.076 c -9.297 0.01 -18.29 1.906 -26.728 5.634 c -8.114 3.585 -15.33 8.684 -21.448 15.156 c -1.087 1.151 -1.186 2.899 -0.23 4.067 c 0.591 0.722 1.442 1.12 2.348 1.12 c 0.175 0 0.353 -0.014 0.531 -0.045 c 0.639 -0.109 1.246 -0.452 1.756 -0.991 c 11.498 -12.162 27.047 -18.871 43.783 -18.889 h 0.063 c 16.043 0 31.173 6.29 42.6 17.712 c 11.445 11.441 17.743 26.59 17.733 42.66 c -0.003 4.142 -0.427 8.281 -1.262 12.3 c -1.396 6.716 -7.451 11.593 -14.397 11.597 c -8.115 0 -14.724 -6.602 -14.733 -14.718 l -0.039 -35.948 c -0.001 -1.299 -0.753 -2.482 -1.871 -2.943 c -0.506 -0.209 -1.043 -0.277 -1.596 -0.199 c -0.633 0.089 -1.262 0.419 -1.771 0.928 l -15.091 15.091 c -1.283 1.282 -3.446 0.925 -4.248 -0.702 c -0.5 -1.018 -0.298 -2.24 0.503 -3.042 l 15.164 -15.164 c 1.571 -1.572 3.662 -2.438 5.886 -2.438 c 1.095 0 2.164 0.213 3.178 0.632 c 3.12 1.29 5.138 4.306 5.142 7.682 l 0.038 36.098 c 0.006 5.198 4.239 9.427 9.442 9.427 c 4.447 -0.002 8.319 -3.105 9.208 -7.379 c 0.761 -3.666 1.149 -7.443 1.151 -11.225 c 0.01 -14.654 -5.737 -28.472 -16.181 -38.91 c -10.427 -10.423 -24.227 -16.164 -38.856 -16.164 h -1.153 c -14.8 0 -28.626 6.522 -38.843 17.23 c -1.434 1.504 -3.355 2.496 -5.426 2.667 c -2.462 0.203 -4.821 -0.659 -6.558 -2.375 c -3.193 -3.153 -3.24 -8.416 -0.105 -11.731 c 6.601 -6.98 14.387 -12.48 23.141 -16.348 c 9.116 -4.027 18.826 -6.075 28.864 -6.086 h 0.081 c 19.073 0 37.051 7.471 50.621 21.035 C -5.967 -51.709 1.512 -33.706 1.5 -14.603 C 1.497 -9.688 0.992 -4.774 0 0" stroke-linecap="round" />
</g>
</g>
</g>
<g transform="matrix(1.9692780337941629 0 0 1.9692780337941629 641.7418683603443 744.0094667225892)" id="text-logo-path"  >
<path style="stroke: none; stroke-width: 0; stroke-dasharray: none; stroke-linecap: butt; stroke-dashoffset: 0; stroke-linejoin: miter; stroke-miterlimit: 4; fill: rgb(115,255,190); fill-rule: nonzero; opacity: 1;"  paint-order="stroke"  transform=" translate(-195.995, 19.369999999999997)" d="M 13.16 0 L 3.76 0 L 3.76 -38.77 L 13.16 -38.77 L 32.79 -15.11 L 32.79 -38.77 L 42.19 -38.77 L 42.19 0 L 32.79 0 L 13.16 -23.71 L 13.16 0 Z M 80.02 0 L 50.32 0 L 50.32 -38.77 L 80.02 -38.77 L 80.02 -30.09 L 59.67 -30.09 L 59.67 -23.43 L 76.65 -23.43 L 76.65 -15.34 L 59.67 -15.34 L 59.67 -8.66 L 80.02 -8.66 L 80.02 0 Z M 98.3 0 L 85.42 -38.77 L 95.38 -38.77 L 103.42 -13.61 L 112.25 -38.77 L 122.46 -38.77 L 130.34 -13.75 L 139.33 -38.77 L 149.37 -38.77 L 134.82 0 L 125.24 0 L 117.12 -25.24 L 107.99 0 L 98.3 0 Z M 166.8 -19.37 L 166.8 -19.37 Q 166.8 -23.43 168.37 -27.14 Q 169.94 -30.84 172.61 -33.54 Q 175.29 -36.24 178.99 -37.84 Q 182.69 -39.44 186.78 -39.44 L 186.78 -39.44 Q 190.82 -39.44 194.53 -37.84 Q 198.25 -36.24 200.92 -33.54 Q 203.59 -30.84 205.19 -27.12 Q 206.79 -23.41 206.79 -19.37 L 206.79 -19.37 Q 206.79 -15.31 205.21 -11.59 Q 203.62 -7.88 200.93 -5.19 Q 198.25 -2.5 194.53 -0.9 Q 190.82 0.7 186.78 0.7 L 186.78 0.7 Q 181.33 0.7 176.72 -2 Q 172.11 -4.7 169.46 -9.31 Q 166.8 -13.92 166.8 -19.37 Z M 175.34 -19.37 L 175.34 -19.37 Q 175.34 -14.64 178.7 -11.31 Q 182.05 -7.99 186.78 -7.99 L 186.78 -7.99 Q 191.46 -7.99 194.8 -11.31 Q 198.14 -14.64 198.14 -19.37 L 198.14 -19.37 Q 198.14 -24.05 194.8 -27.39 Q 191.46 -30.73 186.78 -30.73 L 186.78 -30.73 Q 182.05 -30.73 178.7 -27.4 Q 175.34 -24.07 175.34 -19.37 Z M 222.29 0 L 212.94 0 L 212.94 -38.77 L 223.3 -38.77 L 236.82 -10.33 L 250.27 -38.77 L 260.7 -38.77 L 260.7 0 L 251.3 0 L 251.3 -19.79 L 242 0 L 231.56 0 L 222.29 -19.79 L 222.29 0 Z M 299 0 L 269.3 0 L 269.3 -38.77 L 299 -38.77 L 299 -30.09 L 278.65 -30.09 L 278.65 -23.43 L 295.63 -23.43 L 295.63 -15.34 L 278.65 -15.34 L 278.65 -8.66 L 299 -8.66 L 299 0 Z M 303.26 -19.37 L 303.26 -19.37 Q 303.26 -23.38 304.84 -27.05 Q 306.43 -30.73 309.19 -33.45 Q 311.94 -36.18 315.89 -37.81 Q 319.85 -39.44 324.3 -39.44 L 324.3 -39.44 Q 329.75 -39.44 334.21 -37.17 Q 338.66 -34.9 341.67 -30.95 L 341.67 -30.95 L 333.59 -26.86 Q 330.56 -30.67 324.19 -30.67 L 324.19 -30.67 Q 319.12 -30.67 315.89 -27.5 Q 312.67 -24.33 312.67 -19.48 L 312.67 -19.48 Q 312.67 -14.78 315.98 -11.41 Q 319.29 -8.04 324.3 -8.04 L 324.3 -8.04 Q 330.37 -8.04 333.82 -11.3 L 333.82 -11.3 L 333.82 -15.06 L 322.02 -15.06 L 322.02 -22.24 L 342.08 -22.24 L 342.08 -7.88 Q 341.94 -7.57 341.25 -6.76 Q 340.55 -5.96 338.98 -4.63 Q 337.41 -3.31 335.45 -2.16 Q 333.48 -1 330.52 -0.15 Q 327.56 0.7 324.35 0.7 L 324.35 0.7 Q 319.68 0.7 315.67 -0.97 Q 311.66 -2.64 308.98 -5.43 Q 306.29 -8.21 304.77 -11.83 Q 303.26 -15.45 303.26 -19.37 Z M 354.5 0 L 344.59 0 L 361.18 -38.77 L 371.59 -38.77 L 388.23 0 L 378.27 0 L 375.76 -6.04 L 357.06 -6.04 L 354.5 0 Z M 366.46 -28.17 L 360.31 -13.69 L 372.5 -13.69 L 366.46 -28.17 Z" stroke-linecap="round" />
</g>
<g transform="matrix(1.9692780337941629 0 0 1.9692780337941629 641.1279113170935 844.7893139893772)" id="tagline-4b5d2946-501f-453c-9a7f-2097077c5da8-logo-path"  >
<path style="stroke: rgb(255,255,255); stroke-width: 0; stroke-dasharray: none; stroke-linecap: butt; stroke-dashoffset: 0; stroke-linejoin: miter; stroke-miterlimit: 4; fill: rgb(115,255,190); fill-rule: nonzero; opacity: 1;"  paint-order="stroke"  transform=" translate(-248.28, 9.64)" d="M 1.89 -1.66 L 1.89 -1.66 L 1.89 -16.54 Q 1.89 -16.88 2.02 -17.19 Q 2.15 -17.49 2.37 -17.72 Q 2.59 -17.95 2.89 -18.08 Q 3.2 -18.21 3.55 -18.21 L 3.55 -18.21 L 14.6 -18.21 Q 15.21 -18.21 15.91 -17.99 Q 16.61 -17.77 17.21 -17.3 Q 17.81 -16.82 18.21 -16.06 Q 18.61 -15.3 18.61 -14.19 L 18.61 -14.19 L 18.61 -13.57 Q 18.61 -12.7 18.32 -11.69 Q 18.03 -10.68 17.38 -9.78 L 17.38 -9.78 Q 17.94 -9.43 18.43 -8.95 Q 18.92 -8.47 19.28 -7.83 Q 19.65 -7.2 19.87 -6.4 Q 20.08 -5.6 20.08 -4.63 L 20.08 -4.63 L 20.08 -4 Q 20.08 -3.39 19.87 -2.69 Q 19.67 -1.99 19.19 -1.4 Q 18.71 -0.8 17.95 -0.4 Q 17.19 0 16.08 0 L 16.08 0 L 3.55 0 Q 3.2 0 2.89 -0.13 Q 2.59 -0.25 2.37 -0.48 Q 2.15 -0.7 2.02 -1 Q 1.89 -1.31 1.89 -1.66 Z M 5.19 -14.9 L 5.19 -3.3 L 16.08 -3.3 Q 16.17 -3.3 16.3 -3.31 Q 16.43 -3.33 16.53 -3.39 Q 16.63 -3.45 16.71 -3.61 Q 16.78 -3.76 16.78 -4.02 L 16.78 -4.02 L 16.78 -4.63 Q 16.78 -5.28 16.58 -5.8 Q 16.38 -6.31 16.01 -6.68 Q 15.64 -7.05 15.12 -7.24 Q 14.6 -7.44 13.95 -7.44 L 13.95 -7.44 L 6.51 -7.44 L 6.51 -10.77 L 12.47 -10.77 Q 13.11 -10.77 13.63 -10.96 Q 14.16 -11.16 14.52 -11.53 Q 14.89 -11.9 15.09 -12.41 Q 15.29 -12.92 15.29 -13.57 L 15.29 -13.57 L 15.29 -14.19 Q 15.29 -14.9 14.6 -14.9 L 14.6 -14.9 L 5.19 -14.9 Z M 22.51 -4.63 L 22.51 -4.63 L 22.51 -19.53 L 25.81 -19.53 L 25.81 -4.63 Q 25.81 -4.02 26.19 -3.66 Q 26.57 -3.3 27.14 -3.3 L 27.14 -3.3 L 28.62 -3.3 L 28.62 0 L 27.14 0 Q 26.43 0 25.63 -0.24 Q 24.82 -0.48 24.12 -1.03 Q 23.42 -1.59 22.97 -2.47 Q 22.51 -3.35 22.51 -4.63 Z M 30.46 -4.63 L 30.46 -4.63 L 30.46 -9.1 Q 30.46 -10.37 30.92 -11.25 Q 31.38 -12.14 32.07 -12.69 Q 32.77 -13.24 33.58 -13.48 Q 34.39 -13.72 35.08 -13.72 L 35.08 -13.72 L 41.03 -13.72 Q 42.3 -13.72 43.19 -13.27 Q 44.08 -12.81 44.62 -12.12 Q 45.17 -11.43 45.42 -10.61 Q 45.67 -9.8 45.67 -9.1 L 45.67 -9.1 L 45.67 -4.63 Q 45.67 -3.78 45.45 -3.1 Q 45.23 -2.42 44.88 -1.91 Q 44.52 -1.4 44.05 -1.03 Q 43.58 -0.67 43.07 -0.44 Q 42.55 -0.22 42.03 -0.11 Q 41.5 0 41.03 0 L 41.03 0 L 35.08 0 Q 34.39 0 33.58 -0.24 Q 32.77 -0.48 32.07 -1.03 Q 31.38 -1.59 30.92 -2.47 Q 30.46 -3.35 30.46 -4.63 Z M 33.76 -9.1 L 33.76 -4.63 Q 33.76 -3.99 34.1 -3.64 Q 34.44 -3.3 35.1 -3.3 L 35.1 -3.3 L 41.03 -3.3 Q 41.7 -3.3 42.03 -3.64 Q 42.36 -3.99 42.36 -4.63 L 42.36 -4.63 L 42.36 -9.08 Q 42.36 -9.76 42.02 -10.09 Q 41.68 -10.42 41.03 -10.42 L 41.03 -10.42 L 35.1 -10.42 Q 34.44 -10.42 34.1 -10.09 Q 33.76 -9.75 33.76 -9.1 L 33.76 -9.1 Z M 48.19 -4.63 L 48.19 -4.63 L 48.19 -9.1 Q 48.19 -9.57 48.3 -10.09 Q 48.41 -10.61 48.64 -11.13 Q 48.86 -11.64 49.23 -12.11 Q 49.59 -12.58 50.1 -12.94 Q 50.62 -13.29 51.29 -13.51 Q 51.96 -13.72 52.81 -13.72 L 52.81 -13.72 L 61.76 -13.72 L 61.76 -10.42 L 52.81 -10.42 Q 52.17 -10.42 51.83 -10.09 Q 51.49 -9.76 51.49 -9.08 L 51.49 -9.08 L 51.49 -4.63 Q 51.49 -3.99 51.83 -3.64 Q 52.18 -3.3 52.84 -3.3 L 52.84 -3.3 L 61.76 -3.3 L 61.76 0 L 52.81 0 Q 52.13 0 51.31 -0.24 Q 50.5 -0.48 49.81 -1.03 Q 49.12 -1.59 48.65 -2.47 Q 48.19 -3.35 48.19 -4.63 Z M 67.84 0 L 64.54 0 L 64.54 -19.53 L 67.84 -19.53 L 67.84 0 Z M 68.68 -7.69 L 68.68 -7.69 Q 68.71 -8.05 68.87 -8.36 Q 69.02 -8.67 69.3 -8.89 L 69.3 -8.89 L 75.33 -13.75 L 80.62 -13.75 L 72.85 -7.49 L 80.62 0 L 75.85 0 L 69.2 -6.42 Q 68.68 -6.89 68.68 -7.59 L 68.68 -7.59 Q 68.68 -7.64 68.68 -7.69 Z M 81.75 -4.63 L 81.75 -4.63 L 81.75 -9.1 Q 81.75 -9.57 81.85 -10.09 Q 81.96 -10.61 82.19 -11.13 Q 82.42 -11.64 82.78 -12.11 Q 83.14 -12.58 83.66 -12.94 Q 84.17 -13.29 84.84 -13.51 Q 85.52 -13.72 86.37 -13.72 L 86.37 -13.72 L 95.32 -13.72 L 95.32 -10.42 L 86.37 -10.42 Q 85.72 -10.42 85.38 -10.09 Q 85.05 -9.76 85.05 -9.08 L 85.05 -9.08 L 85.05 -4.63 Q 85.05 -3.99 85.39 -3.64 Q 85.73 -3.3 86.39 -3.3 L 86.39 -3.3 L 95.32 -3.3 L 95.32 0 L 86.37 0 Q 85.68 0 84.87 -0.24 Q 84.06 -0.48 83.36 -1.03 Q 82.67 -1.59 82.21 -2.47 Q 81.75 -3.35 81.75 -4.63 Z M 101.4 0 L 98.1 0 L 98.1 -19.53 L 101.4 -19.53 L 101.4 0 Z M 108.68 -10.42 L 102.73 -10.42 L 102.73 -13.72 L 108.68 -13.72 Q 109.15 -13.72 109.67 -13.62 Q 110.2 -13.51 110.71 -13.28 Q 111.22 -13.05 111.69 -12.69 Q 112.16 -12.33 112.52 -11.81 Q 112.87 -11.3 113.09 -10.63 Q 113.31 -9.95 113.31 -9.1 L 113.31 -9.1 L 113.31 0 L 110 0 L 110 -9.1 Q 110 -9.75 109.67 -10.09 Q 109.34 -10.42 108.68 -10.42 L 108.68 -10.42 Z M 115.45 -4.54 L 115.45 -4.54 Q 115.45 -5.23 115.69 -6.03 Q 115.93 -6.83 116.47 -7.51 Q 117.01 -8.19 117.88 -8.65 Q 118.75 -9.1 120 -9.1 L 120 -9.1 L 125.95 -9.1 L 125.95 -5.95 L 120 -5.95 Q 119.32 -5.95 118.96 -5.54 Q 118.59 -5.13 118.59 -4.52 L 118.59 -4.52 Q 118.59 -3.87 119.01 -3.51 Q 119.44 -3.15 120.02 -3.15 L 120.02 -3.15 L 125.95 -3.15 Q 126.62 -3.15 126.99 -3.55 Q 127.36 -3.96 127.36 -4.57 L 127.36 -4.57 L 127.36 -9.18 Q 127.36 -9.83 126.96 -10.21 Q 126.56 -10.59 125.95 -10.59 L 125.95 -10.59 L 118.7 -10.59 L 118.7 -13.72 L 125.95 -13.72 Q 126.64 -13.72 127.43 -13.48 Q 128.22 -13.24 128.9 -12.7 Q 129.58 -12.16 130.04 -11.29 Q 130.5 -10.42 130.5 -9.18 L 130.5 -9.18 L 130.5 -4.54 Q 130.5 -3.86 130.25 -3.07 Q 130.01 -2.27 129.47 -1.59 Q 128.93 -0.91 128.06 -0.46 Q 127.19 0 125.95 0 L 125.95 0 L 120 0 Q 119.31 0 118.52 -0.24 Q 117.72 -0.48 117.04 -1.02 Q 116.37 -1.56 115.91 -2.43 Q 115.45 -3.3 115.45 -4.54 Z M 136.67 0 L 133.36 0 L 133.36 -13.72 L 136.67 -13.72 L 136.67 0 Z M 136.67 -16.54 L 133.36 -16.54 L 133.36 -19.53 L 136.67 -19.53 L 136.67 -16.54 Z M 143.13 0 L 139.83 0 L 139.83 -12.09 Q 139.83 -12.43 139.95 -12.73 Q 140.08 -13.03 140.31 -13.25 Q 140.54 -13.47 140.84 -13.6 Q 141.15 -13.72 141.49 -13.72 L 141.49 -13.72 L 148.93 -13.72 Q 149.55 -13.72 150.24 -13.58 Q 150.93 -13.44 151.61 -13.13 Q 152.29 -12.82 152.91 -12.35 Q 153.52 -11.87 154 -11.19 Q 154.48 -10.51 154.76 -9.62 Q 155.04 -8.73 155.04 -7.62 L 155.04 -7.62 L 155.04 0 L 151.73 0 L 151.73 -7.62 Q 151.73 -8.26 151.51 -8.78 Q 151.29 -9.29 150.91 -9.66 Q 150.53 -10.03 150.01 -10.23 Q 149.5 -10.42 148.9 -10.42 L 148.9 -10.42 L 143.13 -10.42 L 143.13 0 Z M 166.51 -4.63 L 166.51 -4.63 L 166.51 -13.57 Q 166.51 -14.03 166.62 -14.56 Q 166.73 -15.08 166.96 -15.6 Q 167.18 -16.11 167.55 -16.58 Q 167.92 -17.05 168.44 -17.41 Q 168.95 -17.77 169.62 -17.99 Q 170.29 -18.21 171.15 -18.21 L 171.15 -18.21 L 184.56 -18.21 L 184.56 -14.9 L 171.15 -14.9 Q 170.5 -14.9 170.16 -14.56 Q 169.81 -14.22 169.81 -13.55 L 169.81 -13.55 L 169.81 -4.63 Q 169.81 -4 170.16 -3.65 Q 170.51 -3.3 171.15 -3.3 L 171.15 -3.3 L 181.42 -3.3 L 181.42 -7.44 L 172.63 -7.44 L 172.63 -10.77 L 183.05 -10.77 Q 183.41 -10.77 183.71 -10.63 Q 184.02 -10.5 184.24 -10.27 Q 184.46 -10.04 184.59 -9.74 Q 184.72 -9.45 184.72 -9.1 L 184.72 -9.1 L 184.72 -1.66 Q 184.72 -1.31 184.59 -1 Q 184.46 -0.7 184.24 -0.48 Q 184.02 -0.25 183.71 -0.13 Q 183.41 0 183.05 0 L 183.05 0 L 171.15 0 Q 170.69 0 170.16 -0.11 Q 169.63 -0.22 169.12 -0.44 Q 168.61 -0.67 168.14 -1.03 Q 167.67 -1.4 167.31 -1.91 Q 166.94 -2.42 166.73 -3.1 Q 166.51 -3.78 166.51 -4.63 Z M 186.91 -4.54 L 186.91 -4.54 Q 186.91 -5.23 187.15 -6.03 Q 187.4 -6.83 187.94 -7.51 Q 188.47 -8.19 189.34 -8.65 Q 190.21 -9.1 191.46 -9.1 L 191.46 -9.1 L 197.41 -9.1 L 197.41 -5.95 L 191.46 -5.95 Q 190.79 -5.95 190.42 -5.54 Q 190.05 -5.13 190.05 -4.52 L 190.05 -4.52 Q 190.05 -3.87 190.47 -3.51 Q 190.9 -3.15 191.48 -3.15 L 191.48 -3.15 L 197.41 -3.15 Q 198.08 -3.15 198.45 -3.55 Q 198.82 -3.96 198.82 -4.57 L 198.82 -4.57 L 198.82 -9.18 Q 198.82 -9.83 198.42 -10.21 Q 198.02 -10.59 197.41 -10.59 L 197.41 -10.59 L 190.16 -10.59 L 190.16 -13.72 L 197.41 -13.72 Q 198.1 -13.72 198.89 -13.48 Q 199.68 -13.24 200.36 -12.7 Q 201.04 -12.16 201.5 -11.29 Q 201.96 -10.42 201.96 -9.18 L 201.96 -9.18 L 201.96 -4.54 Q 201.96 -3.86 201.72 -3.07 Q 201.47 -2.27 200.94 -1.59 Q 200.4 -0.91 199.53 -0.46 Q 198.66 0 197.41 0 L 197.41 0 L 191.46 0 Q 190.77 0 189.98 -0.24 Q 189.19 -0.48 188.51 -1.02 Q 187.83 -1.56 187.37 -2.43 Q 186.91 -3.3 186.91 -4.54 Z M 208.08 0 L 204.78 0 L 204.78 -12.09 Q 204.78 -12.43 204.9 -12.73 Q 205.03 -13.03 205.26 -13.25 Q 205.49 -13.47 205.79 -13.6 Q 206.1 -13.72 206.44 -13.72 L 206.44 -13.72 L 212.39 -13.72 Q 213.08 -13.72 213.87 -13.48 Q 214.65 -13.24 215.36 -12.71 L 215.36 -12.71 L 215.36 -13.72 L 219.83 -13.72 Q 220.3 -13.72 220.82 -13.62 Q 221.34 -13.51 221.86 -13.28 Q 222.37 -13.05 222.84 -12.69 Q 223.31 -12.33 223.67 -11.81 Q 224.02 -11.3 224.24 -10.63 Q 224.45 -9.95 224.45 -9.1 L 224.45 -9.1 L 224.45 0 L 221.15 0 L 221.15 -9.1 Q 221.15 -9.75 220.83 -10.09 Q 220.5 -10.42 219.83 -10.42 L 219.83 -10.42 L 216.86 -10.42 Q 217.03 -9.81 217.03 -9.1 L 217.03 -9.1 L 217.03 0 L 213.73 0 L 213.73 -9.1 Q 213.73 -9.75 213.38 -10.09 Q 213.04 -10.42 212.37 -10.42 L 212.37 -10.42 L 208.08 -10.42 L 208.08 0 Z M 227.21 -4.54 L 227.21 -4.54 L 227.21 -9.18 Q 227.21 -9.86 227.45 -10.66 Q 227.69 -11.45 228.23 -12.13 Q 228.77 -12.81 229.64 -13.27 Q 230.51 -13.72 231.75 -13.72 L 231.75 -13.72 L 237.71 -13.72 Q 238.39 -13.72 239.19 -13.48 Q 239.98 -13.24 240.66 -12.7 Q 241.34 -12.16 241.79 -11.29 Q 242.25 -10.42 242.25 -9.18 L 242.25 -9.18 Q 242.25 -8.49 242.01 -7.7 Q 241.77 -6.91 241.23 -6.23 Q 240.69 -5.55 239.82 -5.09 Q 238.95 -4.63 237.71 -4.63 L 237.71 -4.63 L 231.75 -4.63 L 231.75 -7.77 L 237.71 -7.77 Q 238.38 -7.77 238.75 -8.18 Q 239.12 -8.59 239.12 -9.2 L 239.12 -9.2 Q 239.12 -9.85 238.7 -10.22 Q 238.29 -10.59 237.71 -10.59 L 237.71 -10.59 L 231.75 -10.59 Q 231.08 -10.59 230.71 -10.18 Q 230.34 -9.76 230.34 -9.15 L 230.34 -9.15 L 230.34 -4.54 Q 230.34 -3.88 230.76 -3.52 Q 231.17 -3.15 231.78 -3.15 L 231.78 -3.15 L 237.71 -3.15 L 237.71 0 L 231.75 0 Q 231.07 0 230.27 -0.24 Q 229.48 -0.48 228.8 -1.02 Q 228.12 -1.56 227.67 -2.43 Q 227.21 -3.3 227.21 -4.54 Z M 258.9 -14.9 L 251.61 -14.9 L 251.61 -18.21 L 269.47 -18.21 L 269.47 -14.9 L 262.2 -14.9 L 262.2 0 L 258.9 0 L 258.9 -14.9 Z M 274.88 0 L 271.58 0 L 271.58 -19.53 L 274.88 -19.53 L 274.88 0 Z M 282.17 -10.42 L 276.21 -10.42 L 276.21 -13.72 L 282.17 -13.72 Q 282.64 -13.72 283.16 -13.62 Q 283.68 -13.51 284.19 -13.28 Q 284.71 -13.05 285.17 -12.69 Q 285.64 -12.33 286 -11.81 Q 286.36 -11.3 286.57 -10.63 Q 286.79 -9.95 286.79 -9.1 L 286.79 -9.1 L 286.79 0 L 283.49 0 L 283.49 -9.1 Q 283.49 -9.75 283.16 -10.09 Q 282.83 -10.42 282.17 -10.42 L 282.17 -10.42 Z M 288.93 -4.54 L 288.93 -4.54 Q 288.93 -5.23 289.17 -6.03 Q 289.42 -6.83 289.95 -7.51 Q 290.49 -8.19 291.36 -8.65 Q 292.23 -9.1 293.48 -9.1 L 293.48 -9.1 L 299.43 -9.1 L 299.43 -5.95 L 293.48 -5.95 Q 292.8 -5.95 292.44 -5.54 Q 292.07 -5.13 292.07 -4.52 L 292.07 -4.52 Q 292.07 -3.87 292.49 -3.51 Q 292.92 -3.15 293.5 -3.15 L 293.5 -3.15 L 299.43 -3.15 Q 300.1 -3.15 300.47 -3.55 Q 300.84 -3.96 300.84 -4.57 L 300.84 -4.57 L 300.84 -9.18 Q 300.84 -9.83 300.44 -10.21 Q 300.04 -10.59 299.43 -10.59 L 299.43 -10.59 L 292.18 -10.59 L 292.18 -13.72 L 299.43 -13.72 Q 300.12 -13.72 300.91 -13.48 Q 301.7 -13.24 302.38 -12.7 Q 303.06 -12.16 303.52 -11.29 Q 303.98 -10.42 303.98 -9.18 L 303.98 -9.18 L 303.98 -4.54 Q 303.98 -3.86 303.74 -3.07 Q 303.49 -2.27 302.95 -1.59 Q 302.42 -0.91 301.55 -0.46 Q 300.68 0 299.43 0 L 299.43 0 L 293.48 0 Q 292.79 0 292 -0.24 Q 291.21 -0.48 290.53 -1.02 Q 289.85 -1.56 289.39 -2.43 Q 288.93 -3.3 288.93 -4.54 Z M 310.12 -10.42 L 305.83 -10.42 L 305.83 -13.72 L 310.12 -13.72 L 310.12 -18.21 L 313.46 -18.21 L 313.46 -13.72 L 319.22 -13.72 L 319.22 -10.42 L 313.46 -10.42 L 313.46 0 L 310.12 0 L 310.12 -10.42 Z M 333.32 0 L 330.01 0 L 330.01 -16.8 Q 330.01 -17.3 330.3 -17.72 Q 330.59 -18.13 331.03 -18.33 L 331.03 -18.33 Q 331.35 -18.46 331.67 -18.46 L 331.67 -18.46 Q 331.83 -18.46 332 -18.43 L 332 -18.43 Q 332.49 -18.33 332.85 -17.96 L 332.85 -17.96 L 344.91 -5.38 L 344.91 -18.21 L 348.21 -18.21 L 348.21 -1.41 Q 348.21 -1.05 348.07 -0.75 Q 347.94 -0.44 347.72 -0.22 Q 347.5 0 347.19 0.13 Q 346.89 0.25 346.54 0.25 L 346.54 0.25 Q 346.24 0.25 345.93 0.14 Q 345.62 0.03 345.38 -0.23 L 345.38 -0.23 L 333.32 -12.82 L 333.32 0 Z M 351.3 -4.54 L 351.3 -4.54 L 351.3 -9.18 Q 351.3 -9.86 351.55 -10.66 Q 351.79 -11.45 352.33 -12.13 Q 352.87 -12.81 353.74 -13.27 Q 354.61 -13.72 355.85 -13.72 L 355.85 -13.72 L 361.8 -13.72 Q 362.49 -13.72 363.28 -13.48 Q 364.08 -13.24 364.76 -12.7 Q 365.43 -12.16 365.89 -11.29 Q 366.35 -10.42 366.35 -9.18 L 366.35 -9.18 Q 366.35 -8.49 366.11 -7.7 Q 365.87 -6.91 365.33 -6.23 Q 364.79 -5.55 363.92 -5.09 Q 363.05 -4.63 361.8 -4.63 L 361.8 -4.63 L 355.85 -4.63 L 355.85 -7.77 L 361.8 -7.77 Q 362.48 -7.77 362.84 -8.18 Q 363.21 -8.59 363.21 -9.2 L 363.21 -9.2 Q 363.21 -9.85 362.8 -10.22 Q 362.39 -10.59 361.8 -10.59 L 361.8 -10.59 L 355.85 -10.59 Q 355.18 -10.59 354.81 -10.18 Q 354.44 -9.76 354.44 -9.15 L 354.44 -9.15 L 354.44 -4.54 Q 354.44 -3.88 354.85 -3.52 Q 355.27 -3.15 355.88 -3.15 L 355.88 -3.15 L 361.8 -3.15 L 361.8 0 L 355.85 0 Q 355.16 0 354.37 -0.24 Q 353.58 -0.48 352.9 -1.02 Q 352.22 -1.56 351.76 -2.43 Q 351.3 -3.3 351.3 -4.54 Z M 368.57 -1.61 L 368.57 -1.61 L 368.57 -13.72 L 371.87 -13.72 L 371.87 -3.4 Q 373.08 -3.4 374.19 -3.92 Q 375.3 -4.44 376.29 -5.3 Q 377.28 -6.16 378.12 -7.25 Q 378.97 -8.34 379.63 -9.49 Q 380.29 -10.64 380.75 -11.74 Q 381.21 -12.85 381.44 -13.72 L 381.44 -13.72 L 384.95 -13.72 Q 384.39 -11.98 383.64 -10.3 Q 382.89 -8.61 381.92 -7.08 Q 380.95 -5.55 379.75 -4.25 Q 378.55 -2.95 377.1 -2 Q 375.64 -1.05 373.93 -0.51 Q 372.23 0.03 370.23 0.03 L 370.23 0.03 Q 369.89 0.03 369.59 -0.1 Q 369.28 -0.23 369.05 -0.45 Q 368.82 -0.67 368.7 -0.97 Q 368.57 -1.27 368.57 -1.61 Z M 385.85 -4.54 L 385.85 -4.54 L 385.85 -9.18 Q 385.85 -9.86 386.09 -10.66 Q 386.33 -11.45 386.87 -12.13 Q 387.41 -12.81 388.28 -13.27 Q 389.15 -13.72 390.39 -13.72 L 390.39 -13.72 L 396.35 -13.72 Q 397.03 -13.72 397.83 -13.48 Q 398.62 -13.24 399.3 -12.7 Q 399.98 -12.16 400.44 -11.29 Q 400.89 -10.42 400.89 -9.18 L 400.89 -9.18 Q 400.89 -8.49 400.65 -7.7 Q 400.41 -6.91 399.87 -6.23 Q 399.33 -5.55 398.46 -5.09 Q 397.59 -4.63 396.35 -4.63 L 396.35 -4.63 L 390.39 -4.63 L 390.39 -7.77 L 396.35 -7.77 Q 397.02 -7.77 397.39 -8.18 Q 397.76 -8.59 397.76 -9.2 L 397.76 -9.2 Q 397.76 -9.85 397.34 -10.22 Q 396.93 -10.59 396.35 -10.59 L 396.35 -10.59 L 390.39 -10.59 Q 389.72 -10.59 389.35 -10.18 Q 388.98 -9.76 388.98 -9.15 L 388.98 -9.15 L 388.98 -4.54 Q 388.98 -3.88 389.4 -3.52 Q 389.81 -3.15 390.42 -3.15 L 390.42 -3.15 L 396.35 -3.15 L 396.35 0 L 390.39 0 Q 389.71 0 388.91 -0.24 Q 388.12 -0.48 387.44 -1.02 Q 386.76 -1.56 386.31 -2.43 Q 385.85 -3.3 385.85 -4.54 Z M 406.34 0 L 403.04 0 L 403.04 -9.1 Q 403.04 -9.95 403.25 -10.63 Q 403.47 -11.3 403.83 -11.81 Q 404.19 -12.33 404.66 -12.69 Q 405.13 -13.05 405.65 -13.28 Q 406.16 -13.51 406.69 -13.62 Q 407.21 -13.72 407.67 -13.72 L 407.67 -13.72 L 415.12 -13.72 L 415.12 -10.42 L 407.7 -10.42 Q 407.02 -10.42 406.68 -10.09 Q 406.34 -9.75 406.34 -9.1 L 406.34 -9.1 L 406.34 0 Z M 425.84 -4.63 L 425.84 -4.63 L 425.84 -16.54 Q 425.84 -16.88 425.97 -17.19 Q 426.09 -17.49 426.31 -17.72 Q 426.54 -17.95 426.84 -18.08 Q 427.15 -18.21 427.5 -18.21 L 427.5 -18.21 L 442.37 -18.21 L 442.37 -14.9 L 429.14 -14.9 L 429.14 -4.63 Q 429.14 -3.99 429.48 -3.64 Q 429.83 -3.3 430.49 -3.3 L 430.49 -3.3 L 442.37 -3.3 L 442.37 0 L 430.46 0 Q 429.77 0 428.96 -0.24 Q 428.15 -0.48 427.46 -1.03 Q 426.77 -1.59 426.3 -2.47 Q 425.84 -3.35 425.84 -4.63 Z M 440.88 -7.44 L 430.46 -7.44 L 430.46 -10.77 L 440.88 -10.77 L 440.88 -7.44 Z M 448.4 0 L 445.1 0 L 445.1 -12.09 Q 445.1 -12.43 445.22 -12.73 Q 445.35 -13.03 445.58 -13.25 Q 445.81 -13.47 446.11 -13.6 Q 446.42 -13.72 446.76 -13.72 L 446.76 -13.72 L 454.2 -13.72 Q 454.82 -13.72 455.51 -13.58 Q 456.21 -13.44 456.89 -13.13 Q 457.56 -12.82 458.18 -12.35 Q 458.8 -11.87 459.27 -11.19 Q 459.75 -10.51 460.03 -9.62 Q 460.31 -8.73 460.31 -7.62 L 460.31 -7.62 L 460.31 0 L 457.01 0 L 457.01 -7.62 Q 457.01 -8.26 456.78 -8.78 Q 456.56 -9.29 456.18 -9.66 Q 455.8 -10.03 455.29 -10.23 Q 454.77 -10.42 454.17 -10.42 L 454.17 -10.42 L 448.4 -10.42 L 448.4 0 Z M 463.05 -4.63 L 463.05 -4.63 L 463.05 -9.1 Q 463.05 -10.37 463.51 -11.25 Q 463.98 -12.14 464.67 -12.69 Q 465.36 -13.24 466.17 -13.48 Q 466.98 -13.72 467.67 -13.72 L 467.67 -13.72 L 473.62 -13.72 L 473.62 -10.42 L 467.7 -10.42 Q 467.04 -10.42 466.69 -10.09 Q 466.35 -9.75 466.35 -9.1 L 466.35 -9.1 L 466.35 -4.66 Q 466.35 -3.99 466.69 -3.64 Q 467.02 -3.3 467.67 -3.3 L 467.67 -3.3 L 473.62 -3.3 Q 474.3 -3.3 474.63 -3.64 Q 474.96 -3.99 474.96 -4.63 L 474.96 -4.63 L 474.96 -19.53 L 478.26 -19.53 L 478.26 -4.63 Q 478.26 -3.78 478.04 -3.1 Q 477.83 -2.42 477.47 -1.91 Q 477.12 -1.4 476.65 -1.03 Q 476.18 -0.67 475.66 -0.44 Q 475.15 -0.22 474.62 -0.11 Q 474.09 0 473.62 0 L 473.62 0 L 467.67 0 Q 466.82 0 466.15 -0.22 Q 465.47 -0.43 464.96 -0.79 Q 464.45 -1.16 464.08 -1.63 Q 463.72 -2.09 463.49 -2.61 Q 463.26 -3.12 463.16 -3.65 Q 463.05 -4.18 463.05 -4.63 Z M 480.94 -9.75 L 480.94 -9.75 Q 480.94 -10.85 481.33 -11.61 Q 481.72 -12.37 482.32 -12.83 Q 482.92 -13.3 483.62 -13.51 Q 484.31 -13.72 484.92 -13.72 L 484.92 -13.72 L 493.04 -13.72 L 493.04 -10.42 L 484.95 -10.42 Q 484.69 -10.42 484.55 -10.37 Q 484.4 -10.31 484.33 -10.21 Q 484.26 -10.12 484.25 -10.01 Q 484.24 -9.9 484.24 -9.8 L 484.24 -9.8 Q 484.25 -9.6 484.31 -9.48 Q 484.38 -9.37 484.47 -9.32 Q 484.57 -9.27 484.69 -9.26 Q 484.81 -9.25 484.92 -9.25 L 484.92 -9.25 L 490.04 -9.25 Q 491.31 -9.25 492.2 -8.8 Q 493.09 -8.34 493.63 -7.65 Q 494.18 -6.96 494.43 -6.14 Q 494.67 -5.33 494.67 -4.63 L 494.67 -4.63 Q 494.67 -3.78 494.46 -3.1 Q 494.24 -2.42 493.89 -1.91 Q 493.53 -1.4 493.06 -1.03 Q 492.59 -0.67 492.08 -0.44 Q 491.56 -0.22 491.04 -0.11 Q 490.51 0 490.04 0 L 490.04 0 L 481.1 0 L 481.1 -3.3 L 490.01 -3.3 Q 490.69 -3.3 491.03 -3.64 Q 491.37 -3.99 491.37 -4.63 L 491.37 -4.63 Q 491.31 -5.95 490.04 -5.95 L 490.04 -5.95 L 484.92 -5.95 Q 483.83 -5.95 483.07 -6.33 Q 482.31 -6.72 481.83 -7.29 Q 481.36 -7.86 481.15 -8.52 Q 480.94 -9.18 480.94 -9.75 Z" stroke-linecap="round" />
</g>
</svg>