{
  "accessors": [
    {
      "bufferView": 2,
      "componentType": 5126,
      "count": 21036,
      "max": [
        100.59141540527344,
        235.95278930664062,
        100.35174560546875
      ],
      "min": [
        -100.59141540527344,
        -341.87631225585938,
        -85.351982116699219
      ],
      "type": "VEC3"
    },
    {
      "bufferView": 2,
      "byteOffset": 252432,
      "componentType": 5126,
      "count": 21036,
      "max": [
        1,
        1,
        1
      ],
      "min": [
        -1,
        -1,
        -1
      ],
      "type": "VEC3"
    },
    {
      "bufferView": 3,
      "componentType": 5126,
      "count": 21036,
      "max": [
        1,
        1,
        1,
        1
      ],
      "min": [
        -1,
        -1,
        -1,
        -1
      ],
      "type": "VEC4"
    },
    {
      "bufferView": 1,
      "componentType": 5126,
      "count": 21036,
      "max": [
        0.99688202142715454,
        0.99560999870300293
      ],
      "min": [
        0.0030040000565350056,
        0.0027379998937249184
      ],
      "type": "VEC2"
    },
    {
      "bufferView": 0,
      "componentType": 5125,
      "count": 37074,
      "max": [
        21035
      ],
      "min": [
        0
      ],
      "type": "SCALAR"
    },
    {
      "bufferView": 2,
      "byteOffset": 504864,
      "componentType": 5126,
      "count": 54938,
      "max": [
        96.9007568359375,
        64.896133422851562,
        86.638137817382812
      ],
      "min": [
        -96.9007568359375,
        -250.76608276367188,
        -81.444023132324219
      ],
      "type": "VEC3"
    },
    {
      "bufferView": 2,
      "byteOffset": 1164120,
      "componentType": 5126,
      "count": 54938,
      "max": [
        1,
        1,
        1
      ],
      "min": [
        -1,
        -1,
        -1
      ],
      "type": "VEC3"
    },
    {
      "bufferView": 3,
      "byteOffset": 336576,
      "componentType": 5126,
      "count": 54938,
      "max": [
        1,
        1,
        1,
        1
      ],
      "min": [
        -1,
        -1,
        -1,
        -1
      ],
      "type": "VEC4"
    },
    {
      "bufferView": 1,
      "byteOffset": 168288,
      "componentType": 5126,
      "count": 54938,
      "max": [
        0.99823302030563354,
        0.99807798862457275
      ],
      "min": [
        0.0036309999413788319,
        0.10625699907541275
      ],
      "type": "VEC2"
    },
    {
      "bufferView": 0,
      "byteOffset": 148296,
      "componentType": 5125,
      "count": 95934,
      "max": [
        54937
      ],
      "min": [
        0
      ],
      "type": "SCALAR"
    }
  ],
  "asset": {
    "extras": {
      "author": "MSGDI (https://sketchfab.com/MSGDI)",
      "license": "SKETCHFAB Standard (https://sketchfab.com/licenses)",
      "source": "https://sketchfab.com/3d-models/scifi-battleship-dauntless-2547edad09304aee925b70ced6101b13",
      "title": "Scifi Battleship Dauntless"
    },
    "generator": "Sketchfab-9.47.0",
    "version": "2.0"
  },
  "bufferViews": [
    {
      "buffer": 0,
      "byteLength": 532032,
      "byteOffset": 0,
      "name": "floatBufferViews",
      "target": 34963
    },
    {
      "buffer": 0,
      "byteLength": 607792,
      "byteOffset": 532032,
      "byteStride": 8,
      "name": "floatBufferViews",
      "target": 34962
    },
    {
      "buffer": 0,
      "byteLength": 1823376,
      "byteOffset": 1139824,
      "byteStride": 12,
      "name": "floatBufferViews",
      "target": 34962
    },
    {
      "buffer": 0,
      "byteLength": 1215584,
      "byteOffset": 2963200,
      "byteStride": 16,
      "name": "floatBufferViews",
      "target": 34962
    }
  ],
  "buffers": [
    {
      "byteLength": 4178784,
      "uri": "scene.bin"
    }
  ],
  "images": [
    {
      "uri": "textures/ScifiBattleshipDauntlessGrey_baseColor.png"
    },
    {
      "uri": "textures/ScifiBattleshipDauntlessGrey_metallicRoughness.png"
    },
    {
      "uri": "textures/ScifiBattleshipDauntlessGrey_emissive.png"
    },
    {
      "uri": "textures/ScifiBattleshipDauntlessGrey_normal.png"
    },
    {
      "uri": "textures/ScifiSpaceshipStandardWeapons_baseColor.png"
    },
    {
      "uri": "textures/ScifiSpaceshipStandardWeapons_metallicRoughness.png"
    },
    {
      "uri": "textures/ScifiSpaceshipStandardWeapons_emissive.png"
    },
    {
      "uri": "textures/ScifiSpaceshipStandardWeapons_normal.png"
    }
  ],
  "materials": [
    {
      "doubleSided": true,
      "emissiveFactor": [
        1,
        1,
        1
      ],
      "emissiveTexture": {
        "index": 2,
        "texCoord": 0
      },
      "name": "ScifiBattleshipDauntlessGrey",
      "normalTexture": {
        "index": 3,
        "scale": 1,
        "texCoord": 0
      },
      "occlusionTexture": {
        "index": 1,
        "strength": 1,
        "texCoord": 0
      },
      "pbrMetallicRoughness": {
        "baseColorFactor": [
          1,
          1,
          1,
          1
        ],
        "baseColorTexture": {
          "index": 0,
          "texCoord": 0
        },
        "metallicFactor": 1,
        "metallicRoughnessTexture": {
          "index": 1,
          "texCoord": 0
        },
        "roughnessFactor": 1
      }
    },
    {
      "doubleSided": true,
      "emissiveFactor": [
        1,
        1,
        1
      ],
      "emissiveTexture": {
        "index": 6,
        "texCoord": 0
      },
      "name": "ScifiSpaceshipStandardWeapons",
      "normalTexture": {
        "index": 7,
        "scale": 1,
        "texCoord": 0
      },
      "occlusionTexture": {
        "index": 5,
        "strength": 1,
        "texCoord": 0
      },
      "pbrMetallicRoughness": {
        "baseColorFactor": [
          1,
          1,
          1,
          1
        ],
        "baseColorTexture": {
          "index": 4,
          "texCoord": 0
        },
        "metallicFactor": 1,
        "metallicRoughnessTexture": {
          "index": 5,
          "texCoord": 0
        },
        "roughnessFactor": 1
      }
    }
  ],
  "meshes": [
    {
      "name": "ScifiBattleshipDauntlessHull_002_ScifiBattleshipDauntlessGrey_0",
      "primitives": [
        {
          "attributes": {
            "NORMAL": 1,
            "POSITION": 0,
            "TANGENT": 2,
            "TEXCOORD_0": 3
          },
          "indices": 4,
          "material": 0,
          "mode": 4
        }
      ]
    },
    {
      "name": "ScifiBattleshipDauntlessHull_002_ScifiSpaceshipStandardWeapons_0",
      "primitives": [
        {
          "attributes": {
            "NORMAL": 6,
            "POSITION": 5,
            "TANGENT": 7,
            "TEXCOORD_0": 8
          },
          "indices": 9,
          "material": 1,
          "mode": 4
        }
      ]
    }
  ],
  "nodes": [
    {
      "children": [
        1
      ],
      "name": "RootNode (gltf orientation matrix)",
      "rotation": [
        -0.70710678118654746,
        -0,
        -0,
        0.70710678118654757
      ]
    },
    {
      "children": [
        2
      ],
      "name": "RootNode (model correction matrix)"
    },
    {
      "children": [
        3
      ],
      "matrix": [
        1,
        0,
        0,
        0,
        0,
        0,
        1,
        0,
        0,
        -1,
        0,
        0,
        0,
        0,
        0,
        1
      ],
      "name": "39cd0039f80345c3a8fe21bff972d363.fbx"
    },
    {
      "children": [
        4
      ],
      "name": "RootNode"
    },
    {
      "children": [
        5,
        6
      ],
      "matrix": [
        1,
        0,
        0,
        0,
        0,
        -1.6291842253046696e-07,
        -0.99999999999998679,
        0,
        0,
        0.99999999999998679,
        -1.6291842253046696e-07,
        0,
        0,
        0,
        0,
        1
      ],
      "name": "ScifiBattleshipDauntlessHull_002"
    },
    {
      "mesh": 0,
      "name": "ScifiBattleshipDauntlessHull_002_ScifiBattleshipDauntlessGrey_0"
    },
    {
      "mesh": 1,
      "name": "ScifiBattleshipDauntlessHull_002_ScifiSpaceshipStandardWeapons_0"
    }
  ],
  "samplers": [
    {
      "magFilter": 9729,
      "minFilter": 9987,
      "wrapS": 10497,
      "wrapT": 10497
    }
  ],
  "scene": 0,
  "scenes": [
    {
      "name": "OSG_Scene",
      "nodes": [
        0
      ]
    }
  ],
  "textures": [
    {
      "sampler": 0,
      "source": 0
    },
    {
      "sampler": 0,
      "source": 1
    },
    {
      "sampler": 0,
      "source": 2
    },
    {
      "sampler": 0,
      "source": 3
    },
    {
      "sampler": 0,
      "source": 4
    },
    {
      "sampler": 0,
      "source": 5
    },
    {
      "sampler": 0,
      "source": 6
    },
    {
      "sampler": 0,
      "source": 7
    }
  ]
}

